<svg xmlns="http://www.w3.org/2000/svg" width="47" height="31.791" viewBox="0 0 47 31.791"><defs><style>.a{fill:#7e3260;}.b{fill:#ab3c6f;}</style></defs><path class="a" d="M2.348,95.059a1.356,1.356,0,0,0,1.839.541l7.976-4.35,6.649,4.987a1.356,1.356,0,0,0,1.511.078l8.334-5,6.627,4.971a1.355,1.355,0,0,0,1.565.043L46.4,89.964a1.356,1.356,0,0,0,.376-1.88l-2.528-3.792a1.356,1.356,0,0,0-1.88-.376L36.3,87.959l-6.461-4.846a1.356,1.356,0,0,0-1.511-.078l-8.334,5-6.51-4.882a1.356,1.356,0,0,0-1.463-.106L.707,89.219a1.356,1.356,0,0,0-.541,1.839Z" transform="translate(0 -82.842)"/><path class="b" d="M23.5,86.328l-3.507,2.1-6.51-4.882a1.356,1.356,0,0,0-1.463-.106L.707,89.615a1.356,1.356,0,0,0-.541,1.839l2.182,4A1.356,1.356,0,0,0,4.187,96l7.976-4.35,6.649,4.987a1.356,1.356,0,0,0,1.511.078L23.5,94.805V86.328Z" transform="translate(0 -83.238)"/><path class="a" d="M44.244,281.213a1.356,1.356,0,0,0-1.88-.376L36.3,284.88l-6.461-4.846a1.356,1.356,0,0,0-1.511-.078l-8.334,5-6.51-4.882a1.355,1.355,0,0,0-1.463-.106L.707,286.14a1.356,1.356,0,0,0-.541,1.839l2.182,4a1.355,1.355,0,0,0,1.839.541l7.976-4.35,6.649,4.987a1.356,1.356,0,0,0,1.511.078l8.334-5,6.627,4.971a1.356,1.356,0,0,0,1.565.043l9.546-6.364a1.356,1.356,0,0,0,.376-1.88Z" transform="translate(0 -261.686)"/><path class="b" d="M23.5,283.249l-3.507,2.1-6.51-4.882a1.355,1.355,0,0,0-1.463-.105L.707,286.537a1.356,1.356,0,0,0-.541,1.839l2.182,4a1.356,1.356,0,0,0,1.839.541l7.976-4.35,6.649,4.987a1.356,1.356,0,0,0,1.511.078l3.177-1.906v-8.478Z" transform="translate(0 -262.083)"/></svg>