<svg xmlns="http://www.w3.org/2000/svg" width="47" height="52.164" viewBox="0 0 47 52.164"><defs><style>.a{fill:#a55523;}.b{fill:#d26e28;}.c{fill:#32283c;}.d{fill:#eb963c;}.e{fill:#ebcd9b;}.f{fill:#5a5a73;}</style></defs><path class="a" d="M184,336h15.107v10.433a3.419,3.419,0,0,1-3.357,3.478h-8.393A3.419,3.419,0,0,1,184,346.433Z" transform="translate(-168.054 -301.224)"/><path class="b" d="M144,160v14.78a4.274,4.274,0,0,0,4.2,4.347,4.274,4.274,0,0,1,4.2,4.347v9.563h6.714v-9.563a4.274,4.274,0,0,1,4.2-4.347,4.274,4.274,0,0,0,4.2-4.347V160Z" transform="translate(-132.25 -144.351)"/><path class="c" d="M53.821,31.649V24.694A8.547,8.547,0,0,0,45.429,16H40.393A8.547,8.547,0,0,0,32,24.694V36.866a5.128,5.128,0,0,0,5.036,5.216,1.74,1.74,0,0,0,0-3.478V28.172a3.359,3.359,0,1,1,6.714,0v3.478Z" transform="translate(-32 -16)"/><path class="c" d="M272,31.649V24.694A8.547,8.547,0,0,1,280.393,16h5.036a8.547,8.547,0,0,1,8.393,8.694V36.866a5.128,5.128,0,0,1-5.036,5.216,1.74,1.74,0,0,1,0-3.478V28.172a3.359,3.359,0,1,0-6.714,0v3.478Z" transform="translate(-246.821 -16)"/><path class="d" d="M167.5,160H144v5.216a1.71,1.71,0,0,0,1.679,1.739h3.357a3.419,3.419,0,0,1,3.357,3.478v22.6h6.714v-22.6a3.419,3.419,0,0,1,3.357-3.478h3.357a1.71,1.71,0,0,0,1.679-1.739Z" transform="translate(-132.25 -144.351)"/><path class="e" d="M225.679,432h3.357a1.71,1.71,0,0,1,1.679,1.739v1.739H224v-1.739A1.71,1.71,0,0,1,225.679,432Z" transform="translate(-203.857 -386.791)"/><path class="b" d="M224,464h6.714v1.739a1.71,1.71,0,0,1-1.679,1.739h-3.357A1.71,1.71,0,0,1,224,465.739Z" transform="translate(-203.857 -415.314)"/><ellipse class="c" cx="2.448" cy="2.536" rx="2.448" ry="2.536" transform="translate(14.237 23.331)"/><ellipse class="c" cx="2.448" cy="2.536" rx="2.448" ry="2.536" transform="translate(27.946 23.331)"/><path class="f" d="M115.357,31.649V19.478A3.419,3.419,0,0,0,112,16h5.036a8.547,8.547,0,0,1,8.393,8.694v6.955Z" transform="translate(-103.607 -16)"/><path class="f" d="M282.071,31.649V19.478A3.419,3.419,0,0,1,285.429,16h-5.036A8.547,8.547,0,0,0,272,24.694v6.955Z" transform="translate(-246.821 -16)"/><path class="b" d="M80,160h6.714v5.216H83.357A3.419,3.419,0,0,1,80,161.739Z" transform="translate(-74.964 -144.351)"/><path class="b" d="M3.357,0H6.714V5.216H0V3.478A3.419,3.419,0,0,1,3.357,0Z" transform="translate(41.964 20.866) rotate(180)"/><g transform="translate(21.262 46.948)"><path class="c" d="M235.506,448a.855.855,0,0,1,.839.869v.869h-1.679v-.869A.855.855,0,0,1,235.506,448Z" transform="translate(-234.667 -448)"/><path class="c" d="M262.172,448a.855.855,0,0,1,.839.869v.869h-1.679v-.869A.855.855,0,0,1,262.172,448Z" transform="translate(-258.535 -448)"/></g></svg>