<svg xmlns="http://www.w3.org/2000/svg" width="47" height="54.083" viewBox="0 0 47 54.083"><defs><style>.a{fill:#ffeb99;}.b{fill:#ffe477;}.c{fill:#fff5cc;}.d{fill:#957856;}.e{fill:#806749;}.f{fill:#b39a7c;}.g{fill:#a78966;}.h{fill:#3e3d42;}.i{fill:#2d2d30;}.j{fill:#1d1d1f;}.k{fill:#ffdaaa;}.l{fill:#ffc477;}.m{fill:#6a563d;}</style></defs><path class="a" d="M401.366,42.78a76.011,76.011,0,0,1-3.411,27.013,1.506,1.506,0,0,1-2.94-.441A133.118,133.118,0,0,0,392.4,44.375C392.412,44.345,401.366,42.78,401.366,42.78Z" transform="translate(-354.492 -38.261)"/><path class="b" d="M401.491,46.55a28.153,28.153,0,0,0-4.459,3.571,23.041,23.041,0,0,0-3.068,3.7c-.38-3.048-.888-6.231-1.565-9.448.012-.031,8.966-1.6,8.966-1.6S401.487,44.179,401.491,46.55Z" transform="translate(-354.492 -38.261)"/><path class="c" d="M305.145.239a4.507,4.507,0,0,1,5.927,4.28s-12.837,6.492-13.564,19.222c-.03-.094-3.76-3.132-6.065-5V15.187S294.841,3.737,305.145.239Z" transform="translate(-264.198 0)"/><path class="a" d="M33.656,42.78a76.011,76.011,0,0,0,3.411,27.013,1.506,1.506,0,0,0,2.94-.441,133.117,133.117,0,0,1,2.615-24.977C42.609,44.345,33.656,42.78,33.656,42.78Z" transform="translate(-33.529 -38.261)"/><path class="b" d="M33.532,46.55a28.164,28.164,0,0,1,4.459,3.571,23.052,23.052,0,0,1,3.068,3.7c.38-3.048.888-6.231,1.564-9.448-.012-.031-8.966-1.6-8.966-1.6S33.536,44.179,33.532,46.55Z" transform="translate(-33.532 -38.261)"/><path class="c" d="M40.651.239a4.507,4.507,0,0,0-5.927,4.28s12.837,6.492,13.564,19.222c.03-.094,3.76-3.132,6.065-5V15.187S50.955,3.737,40.651.239Z" transform="translate(-34.598 0)"/><g transform="translate(0.126 1.611)"><path class="a" d="M35.79,15.252a4.494,4.494,0,0,0-1.066,2.908s12.837,6.492,13.564,19.222c.02-.063,1.688-1.437,3.481-2.9v-1.6S47.8,19.505,35.79,15.252Z" transform="translate(-34.724 -15.252)"/><path class="a" d="M331.888,15.252a4.494,4.494,0,0,1,1.066,2.908s-12.837,6.492-13.564,19.222c-.02-.063-1.688-1.437-3.481-2.9v-1.6S319.881,19.505,331.888,15.252Z" transform="translate(-286.206 -15.252)"/></g><path class="d" d="M80.756,177.415a12.082,12.082,0,0,1-7.96-6.964,1.777,1.777,0,0,1,1.271-2.418c2.474-.521,6.891-.844,10.248,2.265C84.224,170.388,80.756,177.415,80.756,177.415Z" transform="translate(-68.526 -149.982)"/><path class="e" d="M83.391,197.752c-5.1-3.96-9.437-3.981-9.437-3.981a12.082,12.082,0,0,0,7.96,6.964S82.613,199.32,83.391,197.752Z" transform="translate(-69.684 -173.303)"/><path class="d" d="M332.557,177.415a12.082,12.082,0,0,0,7.96-6.964,1.777,1.777,0,0,0-1.271-2.418c-2.474-.521-6.891-.844-10.248,2.265C329.089,170.388,332.557,177.415,332.557,177.415Z" transform="translate(-297.787 -149.982)"/><path class="e" d="M348.7,197.752c5.1-3.96,9.437-3.981,9.437-3.981a12.082,12.082,0,0,1-7.96,6.964S349.483,199.32,348.7,197.752Z" transform="translate(-315.412 -173.303)"/><path class="f" d="M148.217,131.111h0a12.767,12.767,0,0,0-12.73,12.73V156.76a12.667,12.667,0,0,0,3.09,8.291h19.28a12.668,12.668,0,0,0,3.09-8.291V143.841A12.768,12.768,0,0,0,148.217,131.111Z" transform="translate(-124.717 -117.261)"/><g transform="translate(10.77 16.333)"><path class="g" d="M142.159,232.756a5.21,5.21,0,0,0,1.311-3.454V212.047a5.25,5.25,0,0,0-5.235-5.235h0a5.185,5.185,0,0,0-1.982.393,12.617,12.617,0,0,0-.767,4.341v12.919a12.668,12.668,0,0,0,3.09,8.291Z" transform="translate(-135.486 -201.299)"/><path class="g" d="M302.242,232.756a5.21,5.21,0,0,1-1.311-3.454V212.047a5.25,5.25,0,0,1,5.235-5.235h0a5.185,5.185,0,0,1,1.982.393,12.617,12.617,0,0,1,.767,4.341v12.919a12.668,12.668,0,0,1-3.09,8.291Z" transform="translate(-283.455 -201.299)"/><path class="g" d="M229.858,155.819a.834.834,0,0,1,.64-.98,10.278,10.278,0,0,1,2.108-.218.828.828,0,1,1,0,1.656,8.628,8.628,0,0,0-1.768.183A.774.774,0,0,1,229.858,155.819Z" transform="translate(-219.876 -154.621)"/><path class="g" d="M277.629,162.387c-.131-.15-.269-.3-.411-.44a8.635,8.635,0,0,0-3.677-2.189.828.828,0,1,1,.462-1.59,10.3,10.3,0,0,1,4.386,2.608c.169.169.333.344.488.522a.811.811,0,0,1-.079,1.168A.835.835,0,0,1,277.629,162.387Z" transform="translate(-258.424 -157.764)"/></g><g transform="translate(12.809 26.707)"><ellipse class="h" cx="1.916" cy="1.916" rx="1.916" ry="1.916"/><ellipse class="h" cx="1.916" cy="1.916" rx="1.916" ry="1.916" transform="translate(17.55)"/></g><path class="d" d="M208.776,399.693h0a5.594,5.594,0,0,0-5.577,5.577v.708a5.594,5.594,0,0,0,5.577,5.578h0a5.594,5.594,0,0,0,5.577-5.577v-.708A5.594,5.594,0,0,0,208.776,399.693Z" transform="translate(-185.276 -357.473)"/><path class="e" d="M207.945,405.982v-.708a5.6,5.6,0,0,1,3.2-5.043,5.525,5.525,0,0,0-2.373-.534,5.594,5.594,0,0,0-5.577,5.578v.708a5.594,5.594,0,0,0,5.577,5.577,5.525,5.525,0,0,0,2.373-.534A5.6,5.6,0,0,1,207.945,405.982Z" transform="translate(-185.276 -357.475)"/><path class="i" d="M231.957,425.61a2.843,2.843,0,0,0-2.84,2.84v.708a2.84,2.84,0,0,0,5.679,0v-.708A2.843,2.843,0,0,0,231.957,425.61Z" transform="translate(-208.457 -380.652)"/><path class="j" d="M231.124,428.471a5.532,5.532,0,0,1,.783-2.839,2.843,2.843,0,0,0-2.791,2.839v.708a2.843,2.843,0,0,0,2.791,2.839,5.529,5.529,0,0,1-.783-2.839Z" transform="translate(-208.456 -380.673)"/><path class="k" d="M174.54,365.028c-1.806-2.217-7.111-5.185-9.543-3.7-2.431-1.48-7.736,1.488-9.543,3.7a5.363,5.363,0,0,0,8.316,6.775A9.909,9.909,0,0,0,165,369.745a9.9,9.9,0,0,0,1.227,2.059,5.363,5.363,0,0,0,8.316-6.775Z" transform="translate(-141.497 -322.801)"/><path class="l" d="M160.074,368.773a19.423,19.423,0,0,1,3.007-7.751c-2.646.157-6.211,2.356-7.627,4.093a5.363,5.363,0,0,0,5.771,8.5A7.683,7.683,0,0,1,160.074,368.773Z" transform="translate(-141.497 -322.887)"/><path class="m" d="M248.13,361.658v10.259a11.5,11.5,0,0,0,.831-1.515,11.523,11.523,0,0,0,.824,1.5V361.659a2.61,2.61,0,0,0-.824.321A2.635,2.635,0,0,0,248.13,361.658Z" transform="translate(-225.461 -323.455)"/><path class="h" d="M234.537,338.322c0,1.588-1.287,3.513-2.874,3.513s-2.874-1.926-2.874-3.513,1.287-1.6,2.874-1.6S234.537,336.734,234.537,338.322Z" transform="translate(-208.162 -301.156)"/><g transform="translate(20.635 37.087)"><path class="i" d="M230.273,351.574a.825.825,0,0,0-1.393-.163,4.106,4.106,0,0,0,1.242,2.574.827.827,0,0,0,.733-1.18Z" transform="translate(-228.88 -351.101)"/><path class="i" d="M265.746,351.411a.826.826,0,0,0-1.391.165l-.582,1.23a.825.825,0,0,0,.731,1.18A4.1,4.1,0,0,0,265.746,351.411Z" transform="translate(-260.016 -351.102)"/></g></svg>