<svg xmlns="http://www.w3.org/2000/svg" width="47" height="53.327" viewBox="0 0 47 53.327"><defs><style>.a{fill:#a961b2;}.b{fill:#b76bbf;}.c{fill:#46349e;}.d{fill:#5f4bbc;}.e{fill:#4c3aa3;}.f{fill:#c04a42;}.g{fill:#a45bad;}.h{fill:#cb84d3;}</style></defs><path class="a" d="M294.461,160v2.712a3.615,3.615,0,0,1-1.446,2.892l-2.169,1.627h-7.231l-2.169-1.627A3.615,3.615,0,0,1,280,162.712V160Z" transform="translate(-253.788 -143.731)"/><path class="b" d="M131.615,52.654a1.808,1.808,0,0,1-1.808-1.808h-.9a.9.9,0,1,1,0-1.808h1.808l1.808.9h9.942a5.1,5.1,0,0,1,5.423,0h1.808V46.327h-1.808V43.615h-1.356L147.885,40h5.423l1.808,9.942h.9l.291-.146a2.921,2.921,0,0,1,4.228,2.613v.246a2.922,2.922,0,0,1-1.615,2.613l-2,1.9V64.4h-9.038V57.173l-3.615-3.615h-7.231l-4.519-.9Z" transform="translate(-118.962 -37.288)"/><path class="c" d="M48,316.654l2.357-8.248A6.074,6.074,0,0,1,56.2,304h4.457v3.615H57.248a2.712,2.712,0,0,0-2.6,1.932l-.833,2.777A6.074,6.074,0,0,1,48,316.654Z" transform="translate(-48 -271.462)"/><path class="c" d="M164.57,344l.343,2.746a7.787,7.787,0,0,1-3.055,7.2l1.033,3.615a3.218,3.218,0,0,1,.775,2.094v.617H160.05L157,353.227l1.883-1.732.264-7.494Z" transform="translate(-144.685 -306.942)"/><path class="c" d="M384,288h7.231a1.808,1.808,0,0,1,1.808,1.808v6.832a1.808,1.808,0,0,1-1.236,1.715l-4.187,1.4v-3.615l1.808-.9v-1.808a1.808,1.808,0,0,0-1.808-1.808H384Z" transform="translate(-346.038 -257.269)"/><path class="d" d="M139.25,263.231h-3.615V256H126.6l-7.231,3.615h-5.423a6.327,6.327,0,0,0-6.327,6.327v6.327L104,274.981l1.808,7.231h3.615v-.678a3.389,3.389,0,0,0-.678-2.034l-.678-2.712,1.74-.949a10.226,10.226,0,0,0,4.6-5.18l.441-1.1H124.6a6.327,6.327,0,0,0,3.628-1.144l2.24-1.568h6.972v3.615l-1.808.9v3.615l4.187-1.4a1.808,1.808,0,0,0,1.236-1.715v-6.832A1.808,1.808,0,0,0,139.25,263.231Z" transform="translate(-97.673 -228.885)"/><path class="e" d="M192.9,340.519a.9.9,0,0,1-.9-.9V336h1.808v3.615A.9.9,0,0,1,192.9,340.519Z" transform="translate(-175.731 -299.846)"/><path class="f" d="M184.9,42.211a.9.9,0,0,1-.662-1.519L195.4,28.677,184.264,17.543a.9.9,0,1,1,1.278-1.278l11.75,11.75a.9.9,0,0,1,.023,1.254l-11.75,12.654A.9.9,0,0,1,184.9,42.211Z" transform="translate(-168.634 -16)"/><path class="d" d="M304,25.808h2.712l.9,1.808s1.16-.473,1.638.226c.734,1.073-.452,1.977-.452,1.977l.989,1.5a1.808,1.808,0,0,0,1.51.813h1.738l-.09-.179a7.713,7.713,0,0,1-.814-3.449v-.891A3.615,3.615,0,0,0,308.519,24h-2.712A1.808,1.808,0,0,0,304,25.808Z" transform="translate(-275.077 -23.096)"/><path class="d" d="M307.615,56l-1.808,1.808H304v4.519h2.712a.9.9,0,0,0,.9-.9Z" transform="translate(-275.077 -51.481)"/><g transform="translate(28.923 14.462)"><path class="g" d="M304,184h3.615v1.808H304Z" transform="translate(-304 -179.481)"/><path class="g" d="M352,184h3.615v1.808H352Z" transform="translate(-346.577 -179.481)"/><path class="g" d="M323.615,208h-1.808v.9H320v1.808h1.808v1.808h1.808v-1.808h3.615V208.9h-3.615Z" transform="translate(-318.192 -200.769)"/><path class="g" d="M336,144h1.808v3.615H336Z" transform="translate(-332.385 -144)"/></g><path class="f" d="M130.712,34.077a3.761,3.761,0,0,0,1.412,2.938l1.354,1.083a4.672,4.672,0,0,1,1.754,3.648v.466h-.9a4.672,4.672,0,0,0-2.354-4.057l-2.4-1.373a3.115,3.115,0,0,1-1.57-2.7V25.038a3.115,3.115,0,0,1,1.57-2.7l2.4-1.373a4.672,4.672,0,0,0,2.354-4.057V16h.9v1.37a4.672,4.672,0,0,1-1.754,3.649L132.123,22.1a3.761,3.761,0,0,0-1.412,2.937Z" transform="translate(-118.962 -16)"/><path class="f" d="M96,120h3.615v1.808H96Z" transform="translate(-90.577 -108.25)"/><path class="f" d="M67.615,115.615a.9.9,0,0,1-.286-.046l-2.712-.9a.9.9,0,0,1,0-1.715l2.712-.9a.9.9,0,0,1,1.19.858v1.808A.9.9,0,0,1,67.615,115.615Z" transform="translate(-62.192 -101.154)"/><path class="e" d="M300.274,309.385a.9.9,0,0,1-1.193.765A4.732,4.732,0,0,1,296,305.808V304h1.808v1.808a2.934,2.934,0,0,0,1.87,2.635A.911.911,0,0,1,300.274,309.385Z" transform="translate(-267.981 -271.462)"/><path class="b" d="M130.712,120H128.9a.9.9,0,1,0,0,1.808h.9a1.808,1.808,0,0,0,1.808,1.808h.9V120.9Z" transform="translate(-118.962 -108.25)"/><path class="h" d="M317.191,117.35l-8.671-1.734H304V112h2.712l1.808.9,8.716-.872a.9.9,0,0,1,.591.147l2.04,1.36a.9.9,0,0,1,.4.752v.84a.9.9,0,0,1-.4.752l-2,1.332A.9.9,0,0,1,317.191,117.35Z" transform="translate(-275.077 -101.154)"/></svg>