<svg xmlns="http://www.w3.org/2000/svg" width="47" height="52.208" viewBox="0 0 47 52.208"><defs><style>.a{fill:#ffc477;}.b{fill:#ffa733;}.c{fill:#663a00;}.d{fill:#9a4c00;}.e{fill:#aa6100;}.f{fill:#cc7400;}.g{fill:#ee8700;}.h{fill:#ff9811;}.i{fill:#ffdaaa;}.j{fill:#ffb655;}.k{fill:#3e3d42;}.l{fill:#2d2d30;}.m{fill:#fff5cc;}.n{fill:#5f4d37;}</style></defs><ellipse class="a" cx="5.665" cy="5.665" rx="5.665" ry="5.665" transform="translate(0 2.92)"/><path class="b" d="M59.341,64.917a2.469,2.469,0,1,1,2.469-2.469A2.472,2.472,0,0,1,59.341,64.917Z" transform="translate(-53.677 -53.862)"/><ellipse class="a" cx="5.665" cy="5.665" rx="5.665" ry="5.665" transform="translate(35.67 2.92)"/><path class="b" d="M409.164,64.917a2.469,2.469,0,1,1,2.469-2.469A2.472,2.472,0,0,1,409.164,64.917Z" transform="translate(-367.829 -53.862)"/><path class="c" d="M180.974,390.513h-.6l-8.253,1.66s.868,6.628,4.829,10.243a1.855,1.855,0,0,0,2.932-.59,11.558,11.558,0,0,0,.792-2.4,11.569,11.569,0,0,0,.792,2.4,1.855,1.855,0,0,0,2.932.59c3.961-3.615,4.829-10.243,4.829-10.243Z" transform="translate(-157.174 -350.693)"/><path class="d" d="M277,325.992s.449,8.413-4.473,13.108a2.312,2.312,0,0,1-3.88-1.345,16.192,16.192,0,0,0-4.7-8.963c-.081-.243.907-7.911.907-7.911Z" transform="translate(-239.625 -288.162)"/><path class="c" d="M270.386,322.886c.144-1.148.254-2,.254-2l12.15,5.11s.343,6.425-2.857,11.18C276.2,335.186,271.667,331.114,270.386,322.886Z" transform="translate(-245.419 -288.163)"/><path class="d" d="M119.877,325.992s-.449,8.413,4.473,13.108a2.312,2.312,0,0,0,3.88-1.345,16.193,16.193,0,0,1,4.7-8.963c.081-.243-.907-7.911-.907-7.911Z" transform="translate(-110.248 -288.162)"/><path class="c" d="M132.281,322.886c-.144-1.148-.254-2-.254-2l-12.15,5.11s-.343,6.425,2.857,11.18C126.465,335.186,131,331.114,132.281,322.886Z" transform="translate(-110.248 -288.163)"/><path class="e" d="M311.27,283.888a49.005,49.005,0,0,0,1.694,9.089,1.948,1.948,0,0,1-2.5,2.453c-3.8-1.347-8.946-4.816-10.055-13.546.153,0,5.019-5.11,5.019-5.11Z" transform="translate(-272.383 -248.552)"/><path class="d" d="M329.453,276.773l5.839,7.115a49.01,49.01,0,0,0,1.694,9.089,1.973,1.973,0,0,1,.09.814c-.044,0-4.413-.25-5.45-4.062a47.107,47.107,0,0,0-4.465-10.566C328.339,277.942,329.453,276.773,329.453,276.773Z" transform="translate(-296.405 -248.551)"/><path class="e" d="M89.3,286.061A49,49,0,0,1,87.6,295.15a1.948,1.948,0,0,0,2.5,2.453c3.8-1.347,8.946-4.816,10.055-13.546-.153,0-5.019-5.11-5.019-5.11Z" transform="translate(-81.182 -250.503)"/><path class="d" d="M95.133,278.946l-5.839,7.115a49,49,0,0,1-1.694,9.089,1.974,1.974,0,0,0-.09.814c.044,0,4.306-.179,5.45-4.062a51,51,0,0,1,4.465-10.566C96.247,280.116,95.133,278.946,95.133,278.946Z" transform="translate(-81.182 -250.502)"/><g transform="translate(2.069 17.761)"><path class="f" d="M364.282,187.8a23.825,23.825,0,0,1-2.3,9.544,2.312,2.312,0,0,1-4.328-.367,50.279,50.279,0,0,0-4.944-11.617c.017-.389,2.855-11.185,2.855-11.185Z" transform="translate(-321.419 -174.178)"/><path class="f" d="M45.823,187.8a23.823,23.823,0,0,0,2.3,9.544,2.312,2.312,0,0,0,4.328-.367,50.275,50.275,0,0,1,4.944-11.617c-.017-.389-2.855-11.185-2.855-11.185Z" transform="translate(-45.823 -174.178)"/></g><g transform="translate(2.069 17.761)"><path class="e" d="M48.494,192.611a19.783,19.783,0,0,0,8.352-9.528c-.829-3.275-2.308-8.9-2.308-8.9L45.823,187.8a21.829,21.829,0,0,0,.8,5.447A5.307,5.307,0,0,0,48.494,192.611Z" transform="translate(-45.823 -174.179)"/><path class="e" d="M366.421,192.611a19.783,19.783,0,0,1-8.352-9.528c.829-3.275,2.308-8.9,2.308-8.9l8.715,13.624a21.825,21.825,0,0,1-.8,5.447A5.307,5.307,0,0,1,366.421,192.611Z" transform="translate(-326.23 -174.179)"/></g><path class="g" d="M72.959,30.761A29.254,29.254,0,0,1,70.8,19.95C70.8,0,49.729,0,49.729,0S28.655,0,28.655,19.95A29.254,29.254,0,0,1,26.5,30.761a2.066,2.066,0,0,0,2.892,2.653c3.983-2.261,8.569-7.254,9.239-18.1h22.2c.67,10.85,5.257,15.843,9.239,18.1A2.066,2.066,0,0,0,72.959,30.761Z" transform="translate(-26.229)"/><g transform="translate(0.079 12.383)"><path class="h" d="M28.655,129.01A29.253,29.253,0,0,1,26.5,139.82a2.046,2.046,0,0,0,.739,2.571c4.679-4.386,3.312-12.236,3.312-12.244a49.476,49.476,0,0,1-.663-8.7A21.964,21.964,0,0,0,28.655,129.01Z" transform="translate(-26.308 -121.443)"/><path class="h" d="M444.341,129.01a29.256,29.256,0,0,0,2.156,10.81,2.046,2.046,0,0,1-.739,2.571c-4.678-4.386-3.312-12.236-3.312-12.244a49.456,49.456,0,0,0,.663-8.7A21.961,21.961,0,0,1,444.341,129.01Z" transform="translate(-399.846 -121.443)"/></g><path class="i" d="M193.333,286.462h-2.514a6.019,6.019,0,0,0-6,6v1.054a6.019,6.019,0,0,0,6,6h2.514a6.019,6.019,0,0,0,6-6v-1.054A6.019,6.019,0,0,0,193.333,286.462Z" transform="translate(-168.576 -257.252)"/><g transform="translate(16.242 29.21)"><path class="a" d="M189.452,293.518v-1.054a6.023,6.023,0,0,1,4.941-5.9,5.972,5.972,0,0,0-1.061-.1h-2.514a6.019,6.019,0,0,0-6,6v1.054a6.019,6.019,0,0,0,6,6h2.514a5.97,5.97,0,0,0,1.061-.1A6.023,6.023,0,0,1,189.452,293.518Z" transform="translate(-184.817 -286.462)"/><path class="a" d="M199.335,293.518v-1.054a6.019,6.019,0,0,0-6-6h-2.514a6.019,6.019,0,0,0-6,6v1.054a5.956,5.956,0,0,0,1.072,3.41,8.225,8.225,0,0,0,1.083.072,8.131,8.131,0,0,0,5.1-1.789,8.133,8.133,0,0,0,5.1,1.789h0a8.228,8.228,0,0,0,1.082-.072A5.958,5.958,0,0,0,199.335,293.518Z" transform="translate(-184.818 -286.462)"/></g><path class="j" d="M190.818,286.462a6.019,6.019,0,0,0-6,6v1.054a5.957,5.957,0,0,0,1.072,3.41,8.182,8.182,0,0,0,4.28-.578,5.943,5.943,0,0,1-.716-2.832v-1.054a6.023,6.023,0,0,1,4.941-5.9,5.972,5.972,0,0,0-1.061-.1Z" transform="translate(-168.575 -257.252)"/><path class="k" d="M232.326,333.121h-.607a2.419,2.419,0,0,0,0,4.838h.607a2.419,2.419,0,1,0,0-4.838Z" transform="translate(-208.523 -299.153)"/><path class="l" d="M232.326,333.121h-.607a2.418,2.418,0,0,0-.762,4.714,8.156,8.156,0,0,0,1.065-.723,8.143,8.143,0,0,0,1.065.723,2.418,2.418,0,0,0-.762-4.714Z" transform="translate(-208.523 -299.153)"/><path class="a" d="M146.134,73.29c-4.483-3.282-8.528.784-8.528.784-.04-.04-4.062-4.048-8.526-.779-1.928,1.448-5.726,5.29-4.762,12.626l2.019,11.408a11.664,11.664,0,0,0,.973,2.408,6.259,6.259,0,0,0,10.057.438l.24-.3.24.293a6.259,6.259,0,0,0,10.057-.438,11.666,11.666,0,0,0,.973-2.408L150.9,85.916C151.86,78.579,148.063,74.737,146.134,73.29Z" transform="translate(-114.107 -64.667)"/><g transform="translate(10.057 7.348)"><path class="j" d="M129.082,73.34c-1.928,1.448-5.726,5.29-4.762,12.626l2.019,11.408a11.665,11.665,0,0,0,.973,2.408,6.253,6.253,0,0,0,6.854,2.536,7.082,7.082,0,0,1-.78-.963A13.008,13.008,0,0,1,132.3,98.67l-2.251-12.72c-.975-7.424,2.423-11.639,4.667-13.561l-.047-.018A5.946,5.946,0,0,0,129.082,73.34Z" transform="translate(-124.165 -72.058)"/><path class="j" d="M156.415,207.161a5.887,5.887,0,0,0-4,0c-7.947,2.873-9.31,8.275-9.533,9.74l.262,1.483a11.664,11.664,0,0,0,.973,2.408,6.259,6.259,0,0,0,10.057.438l.24-.3.24.293a6.259,6.259,0,0,0,10.057-.438,11.67,11.67,0,0,0,.973-2.408l.266-1.5C165.729,215.414,164.363,210.034,156.415,207.161Z" transform="translate(-140.973 -193.07)"/></g><path class="b" d="M150.192,249.3a13.006,13.006,0,0,1-1.085-2.685L147.37,236.8a11.349,11.349,0,0,0-4.489,7.034l.262,1.483a11.663,11.663,0,0,0,.973,2.408,6.253,6.253,0,0,0,6.854,2.536A7.1,7.1,0,0,1,150.192,249.3Z" transform="translate(-130.916 -212.653)"/><g transform="translate(28.71 9.983)"><path class="j" d="M308.514,100.152a9.376,9.376,0,0,0-1.016-.759A.8.8,0,1,1,308.289,98a7.951,7.951,0,0,1,1.29.956.8.8,0,0,1,.064,1.128A.749.749,0,0,1,308.514,100.152Z" transform="translate(-307.094 -97.899)"/><path class="j" d="M335.332,129.412a8.47,8.47,0,0,0-1.3-3.7.8.8,0,0,1,1.344-.864,10.3,10.3,0,0,1,1.541,4.372.8.8,0,0,1-.7.89A.781.781,0,0,1,335.332,129.412Z" transform="translate(-331.172 -121.77)"/></g><path class="m" d="M200.373,312.809l.24-.3v-3.723l-6.288,6.229A6.236,6.236,0,0,0,200.373,312.809Z" transform="translate(-177.114 -277.302)"/><path class="a" d="M196.068,352.95l-1.743,1.726a6.327,6.327,0,0,0,2.85-.111,7.111,7.111,0,0,1-.784-.968S196.25,353.331,196.068,352.95Z" transform="translate(-177.115 -316.96)"/><path class="m" d="M256.237,312.809l-.24-.3v-3.723l6.288,6.229A6.236,6.236,0,0,1,256.237,312.809Z" transform="translate(-232.497 -277.302)"/><path class="n" d="M217.442,281.9a.912.912,0,0,0-1.264.259l-.743,1.126c-.061-.009-4.876-.009-4.938,0l-.743-1.127a.912.912,0,0,0-1.524,1l1.415,2.147c.615,1.36,1.675,2.9,3.32,2.9s2.708-1.543,3.323-2.9l1.412-2.141A.913.913,0,0,0,217.442,281.9Z" transform="translate(-189.466 -253.018)"/><g transform="translate(13.781 29.642)"><path class="k" d="M225.42,315.351a1.511,1.511,0,0,0-.974.354,5.257,5.257,0,0,0,1.936,2.334,1.516,1.516,0,0,0-.962-2.689Z" transform="translate(-217.944 -312.837)"/><path class="k" d="M264.647,315.351a1.511,1.511,0,0,1,.974.354,5.257,5.257,0,0,1-1.936,2.334,1.516,1.516,0,0,1,.962-2.689Z" transform="translate(-252.684 -312.837)"/><path class="k" d="M177.986,290.7a.8.8,0,1,1-.566.234A.8.8,0,0,1,177.986,290.7Z" transform="translate(-175.504 -290.696)"/><path class="k" d="M319.94,290.7a.8.8,0,1,1-.566.234A.8.8,0,0,1,319.94,290.7Z" transform="translate(-302.983 -290.696)"/><path class="k" d="M161.485,319.047a.8.8,0,1,1-.566.234A.8.8,0,0,1,161.485,319.047Z" transform="translate(-160.686 -316.156)"/><path class="k" d="M194.487,319.047a.8.8,0,1,1-.566.234A.8.8,0,0,1,194.487,319.047Z" transform="translate(-190.323 -316.156)"/><path class="k" d="M303.439,319.047a.8.8,0,1,1-.566.234A.8.8,0,0,1,303.439,319.047Z" transform="translate(-288.165 -316.156)"/><path class="k" d="M336.441,319.047a.8.8,0,1,1-.566.234A.8.8,0,0,1,336.441,319.047Z" transform="translate(-317.802 -316.156)"/></g><g transform="translate(15.274 18.984)"><ellipse class="c" cx="1.453" cy="1.453" rx="1.453" ry="1.453" transform="translate(13.546)"/><ellipse class="c" cx="1.453" cy="1.453" rx="1.453" ry="1.453"/></g></svg>