<svg xmlns="http://www.w3.org/2000/svg" width="47" height="44.215" viewBox="0 0 47 44.215"><defs><style>.a{fill:#646464;}.b{fill:#5c546a;}.c{fill:#de8229;}.d{fill:#8a8895;}.e{fill:#ffd100;}.f{fill:#ff9500;}</style></defs><g transform="translate(27.906 25.856)"><path class="a" d="M313.547,304.813c-5.264,0-9.547-3.624-9.547-8.078a.734.734,0,0,1,.734-.734h17.625a.734.734,0,0,1,.734.734C323.094,301.19,318.811,304.813,313.547,304.813Zm-8.029-7.344c.448,3.3,3.878,5.875,8.029,5.875s7.58-2.575,8.029-5.875Z" transform="translate(-304 -296.001)"/></g><g transform="translate(0 8.965)"><path class="b" d="M.734,130.362a.735.735,0,0,1-.66-1.055l8.205-16.891a.734.734,0,0,1,1.321.642L1.4,129.948A.735.735,0,0,1,.734,130.362Z" transform="translate(0 -112.003)"/></g><g transform="translate(9.42 8.966)"><path class="b" d="M111.558,130.363a.734.734,0,0,1-.661-.413l-8.205-16.891a.734.734,0,0,1,1.321-.642l8.205,16.891a.735.735,0,0,1-.66,1.055Z" transform="translate(-102.618 -112.004)"/></g><g transform="translate(27.906 8.965)"><path class="b" d="M304.734,130.362a.735.735,0,0,1-.66-1.055l8.205-16.891a.734.734,0,0,1,1.321.642L305.4,129.948A.735.735,0,0,1,304.734,130.362Z" transform="translate(-304 -112.003)"/></g><g transform="translate(37.326 8.966)"><path class="b" d="M415.558,130.363a.734.734,0,0,1-.661-.413l-8.205-16.891a.734.734,0,0,1,1.321-.642l8.205,16.891a.735.735,0,0,1-.66,1.055Z" transform="translate(-406.617 -112.004)"/></g><g transform="translate(4.406 4.559)"><g transform="translate(0 0)"><path class="c" d="M51.671,68.014a.731.731,0,0,1-.336-.082,6.613,6.613,0,0,1-1.641-1.2l-1.479-1.479a.734.734,0,0,1,1.038-1.038l1.479,1.479a5.129,5.129,0,0,0,1.277.933.734.734,0,0,1-.338,1.387Z" transform="translate(-48 -64)"/></g></g><g transform="translate(10.281 3.399)"><path class="c" d="M112.736,57.187a.734.734,0,0,1-.029-1.468,5.1,5.1,0,0,0,1.988-.491l8.009-3.793a.734.734,0,0,1,.628,1.327l-8.009,3.793a6.558,6.558,0,0,1-2.557.631Z" transform="translate(-112.002 -51.363)"/></g><g transform="translate(38.187 4.559)"><path class="c" d="M416.736,68.015a.734.734,0,0,1-.338-1.387,5.124,5.124,0,0,0,1.277-.933l1.479-1.478a.734.734,0,0,1,1.039,1.038l-1.479,1.479a6.6,6.6,0,0,1-1.641,1.2A.733.733,0,0,1,416.736,68.015Z" transform="translate(-416.001 -64.001)"/></g><g transform="translate(24.969 3.399)"><path class="c" d="M283.017,57.19h-.031a6.566,6.566,0,0,1-2.557-.631l-8.008-3.793a.734.734,0,0,1,.628-1.327l8.008,3.793a5.11,5.11,0,0,0,1.989.491.734.734,0,0,1-.029,1.468Z" transform="translate(-272 -51.367)"/></g><g transform="translate(22.031 4.85)"><path class="b" d="M240,100.657V67.167h2.938v33.49" transform="translate(-240.001 -67.167)"/></g><g transform="translate(17.625 37.606)"><path class="d" d="M197.876,424A5.882,5.882,0,0,0,192,429.876a.734.734,0,0,0,1.469,0h8.812a.734.734,0,0,0,1.469,0A5.882,5.882,0,0,0,197.876,424Z" transform="translate(-192.001 -424.001)"/></g><g transform="translate(13.953 42.746)"><path class="b" d="M170.36,481.47H152.735a.734.734,0,1,1,0-1.469H170.36a.734.734,0,1,1,0,1.469Z" transform="translate(-152.001 -480.001)"/></g><g transform="translate(0 25.856)"><g transform="translate(0)"><path class="e" d="M18.36,296H.735a.734.734,0,0,0-.734.734c0,4.454,4.283,8.078,9.547,8.078s9.547-3.624,9.547-8.078A.734.734,0,0,0,18.36,296Z" transform="translate(-0.001 -296.001)"/></g><path class="f" d="M.735,296a.734.734,0,0,0-.734.734c0,4.454,4.283,8.078,9.547,8.078V296Z" transform="translate(-0.001 -296.001)"/></g><g transform="translate(27.906 25.856)"><path class="e" d="M322.36,296H304.735a.734.734,0,0,0-.734.734c0,4.454,4.283,8.078,9.547,8.078s9.547-3.624,9.547-8.078A.734.734,0,0,0,322.36,296Z" transform="translate(-304.001 -296.001)"/><path class="f" d="M304.735,296a.734.734,0,0,0-.734.734c0,4.454,4.283,8.078,9.547,8.078V296Z" transform="translate(-304.001 -296.001)"/></g><g transform="translate(6.013 7.361)"><ellipse class="d" cx="3.22" cy="1.38" rx="3.22" ry="1.38" transform="translate(0 0)"/></g><g transform="translate(34.536 7.361)"><ellipse class="d" cx="3.22" cy="1.38" rx="3.22" ry="1.38" transform="translate(0 0)"/></g><g transform="translate(20.734 0)"><ellipse class="d" cx="2.76" cy="3.68" rx="2.76" ry="3.68" transform="translate(0 0)"/></g><g transform="translate(20.734 2.76)"><ellipse class="b" cx="2.76" cy="0.92" rx="2.76" ry="0.92" transform="translate(0 0)"/></g></svg>