<svg xmlns="http://www.w3.org/2000/svg" width="47" height="40.733" viewBox="0 0 47 40.733"><defs><style>.a{fill:#f05a4b;}.b{fill:#d73228;}.c{fill:#32283c;}.d{fill:#6ea5d7;}.e{fill:#647dbe;}</style></defs><path class="a" d="M41.067,48h-9.4A15.667,15.667,0,0,0,16,63.667H44.2V51.133A3.133,3.133,0,0,0,41.067,48Z" transform="translate(-16 -48)"/><path class="a" d="M304,80h1.567a6.267,6.267,0,1,1,0,12.533H304Z" transform="translate(-275.8 -76.867)"/><path class="b" d="M73.067,80H60.533A12.533,12.533,0,0,0,48,92.533v4.7h3.133a4.7,4.7,0,0,1,4.7-4.7H73.067Z" transform="translate(-44.867 -76.867)"/><path class="a" d="M25.4,259.133v2.553a.58.58,0,0,1-.942.453L20.7,259.133l-3.758,3.006a.58.58,0,0,1-.942-.453v-2.554A3.133,3.133,0,0,1,19.133,256h3.133A3.133,3.133,0,0,1,25.4,259.133Z" transform="translate(-16 -235.633)"/><path class="a" d="M256,208h4.7a4.7,4.7,0,0,1-4.7,4.7Z" transform="translate(-232.5 -192.333)"/><ellipse class="c" cx="1.895" cy="2.369" rx="1.895" ry="2.369" transform="translate(29.628 5.2)"/><path class="a" d="M219.917,104v7.833a3.917,3.917,0,0,1,0-7.833Z" transform="translate(-196.417 -98.517)"/><path class="d" d="M211.133,319.667h9.4A15.667,15.667,0,0,0,236.2,304H208v12.533A3.133,3.133,0,0,0,211.133,319.667Z" transform="translate(-189.2 -278.933)"/><path class="d" d="M0,0H1.567a6.267,6.267,0,1,1,0,12.533H0Z" transform="translate(18.8 37.6) rotate(180)"/><path class="e" d="M208,273.233h12.533A12.533,12.533,0,0,0,233.067,260.7V256h-3.133a4.7,4.7,0,0,1-4.7,4.7H208Z" transform="translate(-189.2 -235.633)"/><path class="d" d="M400,195.133V192.58a.58.58,0,0,1,.942-.453l3.758,3.006,3.758-3.006a.58.58,0,0,1,.942.452v2.554a3.133,3.133,0,0,1-3.133,3.133h-3.133A3.133,3.133,0,0,1,400,195.133Z" transform="translate(-362.4 -177.9)"/><path class="d" d="M0,0H4.7A4.7,4.7,0,0,1,0,4.7Z" transform="translate(23.5 25.067) rotate(180)"/><ellipse class="c" cx="1.421" cy="1.895" rx="1.421" ry="1.895" transform="translate(14.466 30.784)"/><path class="d" d="M256,335.833V328a3.917,3.917,0,1,1,0,7.833Z" transform="translate(-232.5 -300.583)"/></svg>