<svg xmlns="http://www.w3.org/2000/svg" width="34.919" height="58.197" viewBox="0 0 34.919 58.197"><defs><style>.a{fill:#463c4b;}.b{fill:#32283c;}.c{fill:#5a5a73;}</style></defs><g transform="translate(0 9.7)"><path class="a" d="M233.7,369.459h-1.94A7.768,7.768,0,0,1,224,361.7v-5.82a3.88,3.88,0,1,1,7.76,0v5.82h1.94a3.88,3.88,0,1,1,7.76,0A7.768,7.768,0,0,1,233.7,369.459Z" transform="translate(-210.421 -320.961)"/><path class="a" d="M149.82,107.639a1.934,1.934,0,0,1-1.372-.568l-3.88-3.88A1.94,1.94,0,0,1,144,101.82V97.94a1.94,1.94,0,1,1,3.88,0v3.076l3.312,3.312a1.94,1.94,0,0,1-1.372,3.312Z" transform="translate(-140.12 -96)"/><path class="a" d="M305.94,107.639a1.94,1.94,0,0,1-1.372-3.312l3.312-3.312V97.94a1.94,1.94,0,0,1,3.88,0v3.88a1.94,1.94,0,0,1-.568,1.372l-3.88,3.88A1.934,1.934,0,0,1,305.94,107.639Z" transform="translate(-280.721 -96)"/><path class="a" d="M325.82,327.76v-3.88H320V320h5.82a3.88,3.88,0,1,1,0,7.76Z" transform="translate(-294.781 -292.841)"/><path class="a" d="M115.88,327.76v-3.88h5.82V320h-5.82a3.88,3.88,0,1,0,0,7.76Z" transform="translate(-112 -292.841)"/></g><path class="b" d="M325.82,263.76v-3.88H320V256h5.82a3.88,3.88,0,1,1,0,7.76Z" transform="translate(-294.781 -226.901)"/><path class="b" d="M115.88,263.76v-3.88h5.82V256h-5.82a3.88,3.88,0,0,0,0,7.76Z" transform="translate(-112 -226.901)"/><path class="a" d="M325.82,199.76v-3.88H320V192h5.82a3.88,3.88,0,1,1,0,7.76Z" transform="translate(-294.781 -170.661)"/><path class="a" d="M115.88,199.76v-3.88h5.82V192h-5.82a3.88,3.88,0,1,0,0,7.76Z" transform="translate(-112 -170.661)"/><path class="c" d="M179.88,160h11.64a3.88,3.88,0,0,1,3.88,3.88v17.459a5.82,5.82,0,0,1-5.82,5.82h-7.76a5.82,5.82,0,0,1-5.82-5.82V163.88A3.88,3.88,0,0,1,179.88,160Z" transform="translate(-168.24 -142.541)"/><ellipse class="b" cx="0.97" cy="0.97" rx="0.97" ry="0.97" transform="translate(19.399 19.552)"/><ellipse class="b" cx="0.97" cy="0.97" rx="0.97" ry="0.97" transform="translate(13.579 19.552)"/><path class="b" d="M226.91,136v2.91H224A2.91,2.91,0,0,1,226.91,136Z" transform="translate(-210.421 -121.451)"/><path class="b" d="M0,0H2.91V2.91A2.91,2.91,0,0,1,0,0Z" transform="translate(21.339 17.459) rotate(180)"/><path class="c" d="M316.85,16v5.82H312v2.91a4.85,4.85,0,0,0,9.7,0V20.85A4.85,4.85,0,0,0,316.85,16Z" transform="translate(-287.751 -16)"/><path class="a" d="M314.91,40v2.91H312A2.91,2.91,0,0,1,314.91,40Z" transform="translate(-287.751 -37.09)"/><path class="c" d="M124.85,16v5.82h4.85v2.91a4.85,4.85,0,0,1-9.7,0V20.85A4.85,4.85,0,0,1,124.85,16Z" transform="translate(-119.03 -16)"/><path class="a" d="M0,0H2.91V2.91A2.91,2.91,0,0,1,0,0Z" transform="translate(10.67 5.82) rotate(180)"/><path class="a" d="M176,224h19.4V235.64H176Z" transform="translate(-168.24 -198.781)"/><path class="c" d="M307.88,376v2.91a3.88,3.88,0,1,0,3.88,3.88v-2.91A3.88,3.88,0,0,0,307.88,376Z" transform="translate(-280.721 -332.352)"/></svg>