<svg xmlns="http://www.w3.org/2000/svg" width="47" height="47.261" viewBox="0 0 47 47.261"><defs><style>.a{fill:#32283c;}.b{fill:#be322d;}.c{fill:#f0505a;}.d{fill:#f9c2c9;}</style></defs><path class="a" d="M16,16.234A1.567,1.567,0,0,0,17.567,17.8h1.567V31.9A6.267,6.267,0,0,0,25.4,38.167h1.567v-9.4H25.4A1.567,1.567,0,0,1,23.833,27.2V19.367a4.7,4.7,0,0,0-4.7-4.7H17.567A1.567,1.567,0,0,0,16,16.234Z" transform="translate(-16 -14.667)"/><path class="a" d="M394.967,16.234A1.567,1.567,0,0,1,393.4,17.8h-1.567V31.9a6.267,6.267,0,0,1-6.267,6.267H384v-9.4h1.567a1.567,1.567,0,0,0,1.567-1.567V19.367a4.7,4.7,0,0,1,4.7-4.7H393.4a1.567,1.567,0,0,1,1.567,1.567Z" transform="translate(-347.967 -14.667)"/><path class="b" d="M128,158.667v18.8a3.133,3.133,0,0,0,3.133,3.133,3.133,3.133,0,0,1,3.133,3.133v5.744a2.35,2.35,0,0,0,2.35,2.35h7.833a2.35,2.35,0,0,0,2.35-2.35v-5.744a3.133,3.133,0,0,1,3.133-3.133,3.133,3.133,0,0,0,3.133-3.133v-18.8Z" transform="translate(-117.033 -144.567)"/><path class="c" d="M128,158.667v7.05a2.35,2.35,0,0,0,2.35,2.35h3.133a3.133,3.133,0,0,1,3.133,3.133v14.1h7.833V171.2a3.133,3.133,0,0,1,3.133-3.133h3.133a2.35,2.35,0,0,0,2.35-2.35v-7.05Z" transform="translate(-117.033 -144.567)"/><rect class="d" width="12.533" height="6.528" rx="3.264" transform="translate(17.233 40.733)"/><g transform="translate(14.049 24.877)"><path class="a" d="M217.175,462.667a1.175,1.175,0,0,1,1.175,1.175v2.219H216v-2.219A1.175,1.175,0,0,1,217.175,462.667Z" transform="translate(-210.466 -443.677)"/><path class="a" d="M273.175,462.667a1.175,1.175,0,0,1,1.175,1.175v2.219H272v-2.219A1.175,1.175,0,0,1,273.175,462.667Z" transform="translate(-260.982 -443.677)"/><ellipse class="a" cx="2.195" cy="1.463" rx="2.195" ry="1.463" transform="translate(0 0)"/><ellipse class="a" cx="1.463" cy="1.463" rx="1.463" ry="1.463" transform="translate(14.634 0)"/></g><path class="c" d="M49.567,254.667h6.267v4.7h-4.7A3.133,3.133,0,0,1,48,256.234,1.567,1.567,0,0,1,49.567,254.667Z" transform="translate(-44.867 -231.167)"/><path class="c" d="M3.133,0h4.7V4.7H1.567A1.567,1.567,0,0,1,0,3.133,3.133,3.133,0,0,1,3.133,0Z" transform="translate(43.867 28.2) rotate(180)"/><rect class="b" width="19.024" height="4.39" rx="2.195" transform="translate(14.049 11.707)"/></svg>