<svg xmlns="http://www.w3.org/2000/svg" width="47" height="52.423" viewBox="0 0 47 52.423"><defs><style>.a{fill:#f06423;}.b{fill:#d24605;}.c{fill:#8d371e;}.d{fill:#f0915a;}.e{fill:#fab991;}.f{fill:#784687;}.g{fill:#32283c;}.h{fill:#8c5aa5;}</style></defs><path class="a" d="M56.135,76.423H71.5V24H64.269a7.231,7.231,0,0,0-7.231,7.231v4.455A15.429,15.429,0,0,1,52.519,46.6,15.429,15.429,0,0,0,48,57.506V68.288A8.135,8.135,0,0,0,56.135,76.423Z" transform="translate(-48 -24)"/><path class="b" d="M271.365,76.423H256V24h7.231a7.231,7.231,0,0,1,7.231,7.231v4.455a15.429,15.429,0,0,0,4.519,10.91,15.43,15.43,0,0,1,4.519,10.91V68.288A8.135,8.135,0,0,1,271.365,76.423Z" transform="translate(-232.5 -24)"/><path class="c" d="M160,184h21.692v21.692H160Z" transform="translate(-147.346 -165.923)"/><path class="d" d="M224,344h7.231v3.615H224Z" transform="translate(-204.115 -307.846)"/><path class="d" d="M160,376h21.692v12.654H160Z" transform="translate(-147.346 -336.231)"/><path class="e" d="M0,0H4.519V8.135A4.519,4.519,0,0,1,0,12.654Z" transform="translate(12.654 52.423) rotate(180)"/><path class="e" d="M352,376a4.519,4.519,0,0,1,4.519,4.519v8.135H352Z" transform="translate(-317.654 -336.231)"/><path class="f" d="M160,383.231h12.654a5.423,5.423,0,0,0,5.423-5.423V376h3.615v12.654H160Z" transform="translate(-147.346 -336.231)"/><path class="e" d="M174.462,155.615A3.615,3.615,0,0,1,170.846,152a3.615,3.615,0,0,1-3.615,3.615H160v10.846a7.231,7.231,0,0,0,7.231,7.231h7.231a7.231,7.231,0,0,0,7.231-7.231V155.615Z" transform="translate(-147.346 -137.538)"/><ellipse class="g" cx="0.624" cy="1.872" rx="0.624" ry="1.872" transform="translate(18.176 21.099)"/><ellipse class="g" cx="1.248" cy="1.872" rx="1.248" ry="1.872" transform="translate(26.91 21.099)"/><path class="h" d="M128,88h28.923v3.615H128Z" transform="translate(-118.962 -80.769)"/><path class="f" d="M256,88h14.462v3.615H256Z" transform="translate(-232.5 -80.769)"/><path class="g" d="M1.808,0A1.808,1.808,0,0,1,3.615,1.808H0A1.808,1.808,0,0,1,1.808,0Z" transform="translate(25.308 32.538) rotate(180)"/></svg>