<svg xmlns="http://www.w3.org/2000/svg" xmlns:xlink="http://www.w3.org/1999/xlink" width="80.687" height="37.895" viewBox="0 0 80.687 37.895"><defs><style>.a{fill:#fff;}.b{fill:url(#a);}.c{fill:url(#b);}.d{fill:url(#c);}.e{fill:url(#d);}.f{fill:url(#e);}.g{fill:url(#f);}.h{fill:url(#g);}.i{fill:#d0232a;}</style><linearGradient id="a" x1="9.203" y1="-3.309" x2="10.203" y2="-3.309" gradientUnits="objectBoundingBox"><stop offset="0" stop-color="#d0232a"/><stop offset="1" stop-color="#df1f29"/></linearGradient><linearGradient id="b" x1="68.611" y1="-71.793" x2="69.611" y2="-71.793" xlink:href="#a"/><linearGradient id="c" x1="68.49" y1="-72.026" x2="69.49" y2="-72.026" xlink:href="#a"/><linearGradient id="d" x1="41.099" y1="-14.566" x2="42.099" y2="-14.566" xlink:href="#a"/><linearGradient id="e" x1="47.872" y1="-14.558" x2="48.872" y2="-14.558" xlink:href="#a"/><linearGradient id="f" x1="24.018" y1="-14.421" x2="25.018" y2="-14.421" xlink:href="#a"/><linearGradient id="g" x1="46.28" y1="-14.145" x2="47.28" y2="-14.145" xlink:href="#a"/></defs><g transform="translate(0 0)"><g transform="translate(0 0)"><g transform="translate(0 0)"><ellipse class="a" cx="18.722" cy="18.921" rx="18.722" ry="18.921" transform="translate(0.041 0.015)"/><path class="b" d="M30.473,23.708V14.133h6.436A18.725,18.725,0,0,0,14.018.629,18.961,18.961,0,0,0,.655,23.763a18.695,18.695,0,0,0,36.268-.055Zm-11.9-7.975-5.211,6.128h5.211v1.847h-7.89v-1.6l5.211-6.128H10.84V14.133h7.728Zm9.394.274H22.819v1.942h5.143v1.88H22.819v2.01h5.143v1.88H20.748V14.144h7.214Z" transform="translate(-0.035 -0.002)"/><path class="c" d="M297.23,144.74v1.921l4.948-.031a18.833,18.833,0,0,0-.2-1.891Z" transform="translate(-264.711 -128.725)"/><path class="d" d="M297.14,180.99h4.76a18.859,18.859,0,0,0,.2-2.02L297.14,179Z" transform="translate(-264.631 -159.167)"/><path class="e" d="M361.861,127.79H363.4l5.075,6.551V127.79h1.641v9.475h-1.394l-5.225-6.74v6.74H361.86Z" transform="translate(-322.27 -113.609)"/><path class="f" d="M458.961,127.79h7.025v1.489h-5.362v2.463h4.751v1.495h-4.751v2.544h5.427v1.489H458.96Z" transform="translate(-408.745 -113.609)"/><path class="g" d="M534.55,127.567h1.8l2.26,7.025,2.328-7.052h1.408l2.327,7.052,2.261-7.025h1.751l-3.3,9.542h-1.437l-2.328-6.808-2.328,6.808h-1.434Z" transform="translate(-476.064 -113.386)"/><path class="h" d="M670.41,134.771l1-1.191a4.365,4.365,0,0,0,2.991,1.231c1.028,0,1.679-.474,1.679-1.19v-.027c0-.677-.38-1.042-2.139-1.449-2.017-.487-3.154-1.082-3.154-2.828v-.027c0-1.624,1.354-2.748,3.234-2.748a5.252,5.252,0,0,1,3.438,1.192l-.893,1.258a4.3,4.3,0,0,0-2.571-.974c-.975,0-1.544.5-1.544,1.123v.027c0,.731.438,1.056,2.247,1.489,2,.487,3.045,1.2,3.045,2.775v.026c0,1.774-1.394,2.83-3.383,2.83A5.834,5.834,0,0,1,670.41,134.771Z" transform="translate(-597.058 -112.496)"/><path class="i" d="M3.084-3.349h-1v5.8H.892v-5.8H-.12v-1.03H.91A2.575,2.575,0,0,1,.654-5.432a1.81,1.81,0,0,1,.133-.691A1.5,1.5,0,0,1,1.2-6.69a1.989,1.989,0,0,1,.709-.382,3.378,3.378,0,0,1,1.032-.14,4.394,4.394,0,0,1,1.357.206,4.946,4.946,0,0,1,1.211.584,6.537,6.537,0,0,1,1.089.911,11.2,11.2,0,0,1,.993,1.183h-1.1q-.16-.16-.373-.362T5.643-5.1q-.261-.206-.561-.4a5.131,5.131,0,0,0-.629-.348,3.948,3.948,0,0,0-.687-.245,2.918,2.918,0,0,0-.728-.092,1.924,1.924,0,0,0-.563.073,1.094,1.094,0,0,0-.394.206.806.806,0,0,0-.229.314,1.057,1.057,0,0,0-.073.4,1.413,1.413,0,0,0,.057.391,2.109,2.109,0,0,0,.176.419H3.084ZM6.306,1.045a1.7,1.7,0,0,0,.5-.27A.449.449,0,0,0,6.961.422.519.519,0,0,0,6.908.191.492.492,0,0,0,6.739,0a.924.924,0,0,0-.3-.126A1.833,1.833,0,0,0,6-.168a2.264,2.264,0,0,0-.421.039,1.02,1.02,0,0,0-.366.142A.779.779,0,0,0,4.954.29a.883.883,0,0,0-.1.439,1.28,1.28,0,0,0,.105.519,1.823,1.823,0,0,0,.279.446,2.487,2.487,0,0,0,.4.378,4.737,4.737,0,0,0,.469.314,5.018,5.018,0,0,0,.483.249q.24.108.446.185l-.453.966q-.357-.151-.712-.325A7.236,7.236,0,0,1,5.2,3.084a4.777,4.777,0,0,1-.6-.444,3.047,3.047,0,0,1-.478-.526A2.389,2.389,0,0,1,3.8,1.489,2.289,2.289,0,0,1,3.688.752,2.044,2.044,0,0,1,3.805.036a1.729,1.729,0,0,1,.323-.547,3.047,3.047,0,0,1-.178-.3,2.52,2.52,0,0,1-.14-.318,2.567,2.567,0,0,1-.092-.318,1.432,1.432,0,0,1-.034-.3,1.089,1.089,0,0,1,.064-.371.81.81,0,0,1,.208-.316,1.046,1.046,0,0,1,.373-.22,1.658,1.658,0,0,1,.558-.082H6.755v-.609H2.764v-1.03H9.02v1.03H7.959v1.584H5.226a.482.482,0,0,0-.121.016.331.331,0,0,0-.114.055.294.294,0,0,0-.087.108.388.388,0,0,0-.034.174.612.612,0,0,0,.03.195.733.733,0,0,0,.08.167A3.207,3.207,0,0,1,6-1.212a3.3,3.3,0,0,1,.817.1,2.1,2.1,0,0,1,.68.3A1.483,1.483,0,0,1,7.961-.3a1.5,1.5,0,0,1,.172.737,1.47,1.47,0,0,1-.124.629,1.53,1.53,0,0,1-.323.455,2.019,2.019,0,0,1-.451.327,4.55,4.55,0,0,1-.513.236Zm.7-6.888A.678.678,0,0,1,7.059-6.1a.611.611,0,0,1,.135-.206A.635.635,0,0,1,7.4-6.443a.692.692,0,0,1,.268-.05.7.7,0,0,1,.265.05.637.637,0,0,1,.213.14.674.674,0,0,1,.142.211.654.654,0,0,1,.053.263.69.69,0,0,1-.048.261.572.572,0,0,1-.137.2.65.65,0,0,1-.211.133.708.708,0,0,1-.263.048.726.726,0,0,1-.265-.048.609.609,0,0,1-.213-.137.681.681,0,0,1-.142-.208A.649.649,0,0,1,7.011-5.843Zm7.95,2.494h-1.4v2.124h-1.68a1.377,1.377,0,0,0-.92.277,1.031,1.031,0,0,0-.325.831,1.656,1.656,0,0,0,.1.579,1.49,1.49,0,0,0,.284.478,1.337,1.337,0,0,0,.437.325,1.305,1.305,0,0,0,.561.119,1.64,1.64,0,0,0,.24-.016.557.557,0,0,0,.19-.062,1.873,1.873,0,0,1-.041-.394,1.84,1.84,0,0,1,.069-.5,1.4,1.4,0,0,1,.2-.43,1.007,1.007,0,0,1,.332-.3.912.912,0,0,1,.455-.112.869.869,0,0,1,.334.064.778.778,0,0,1,.272.188.9.9,0,0,1,.185.309A1.214,1.214,0,0,1,14.33.55a1.444,1.444,0,0,1-.057.41,2,2,0,0,1-.149.368,2.018,2.018,0,0,1-.215.327q-.124.153-.252.286a3.574,3.574,0,0,0,.778.888l-.783.8a3.979,3.979,0,0,1-.565-.613,3.623,3.623,0,0,1-.391-.668,1.986,1.986,0,0,1-.362.082,2.841,2.841,0,0,1-.362.023,2.317,2.317,0,0,1-.654-.094,2.613,2.613,0,0,1-.6-.261A2.634,2.634,0,0,1,10.2,1.69a2.613,2.613,0,0,1-.407-.526,2.705,2.705,0,0,1-.265-.62,2.463,2.463,0,0,1-.1-.689,2.373,2.373,0,0,1,.162-.911,1.816,1.816,0,0,1,.453-.659,1.911,1.911,0,0,1,.7-.4,2.853,2.853,0,0,1,.9-.135h.728v-1.1H8.7v-1.03h6.261Zm2.883,0h-1V2.445H15.652V-3.349H14.641v-1.03h1.03a3.516,3.516,0,0,0-.22-.723,2.444,2.444,0,0,0-.288-.5,1.457,1.457,0,0,0-.323-.316,1.567,1.567,0,0,0-.323-.174,1.223,1.223,0,0,0-.291-.076A1.956,1.956,0,0,0,14-6.182a.958.958,0,0,0-.65.19.611.611,0,0,0-.215.478,1.148,1.148,0,0,0,.176.577,2.675,2.675,0,0,0,.51.609H12.508a2.637,2.637,0,0,1-.433-.714,1.931,1.931,0,0,1-.144-.709,1.344,1.344,0,0,1,.124-.57,1.271,1.271,0,0,1,.371-.465,1.861,1.861,0,0,1,.62-.311,3,3,0,0,1,.876-.114,2.941,2.941,0,0,1,1.2.222,2.407,2.407,0,0,1,.84.6,2.891,2.891,0,0,1,.535.9,5.077,5.077,0,0,1,.279,1.108h1.071Z" transform="translate(62.113 34.108)"/></g></g></g></svg>