<svg xmlns="http://www.w3.org/2000/svg" viewBox="0 0 116 39" width="116" height="39">
	<defs>
		<radialGradient id="grd1" gradientUnits="userSpaceOnUse"  cx="6.46" cy="0.705" r="43.667">
			<stop offset="0.418" stop-color="#f89b1c"  />
			<stop offset="0.674" stop-color="#81a334"  />
			<stop offset="0.914" stop-color="#16ab4b"  />
		</radialGradient>
		<radialGradient id="grd2" gradientUnits="userSpaceOnUse"  cx="7.946" cy="1.493" r="108.919">
			<stop offset="0.418" stop-color="#f89b1c"  />
			<stop offset="0.674" stop-color="#81a334"  />
			<stop offset="0.914" stop-color="#16ab4b"  />
		</radialGradient>
		<radialGradient id="grd3" gradientUnits="userSpaceOnUse"  cx="7.949" cy="1.687" r="103.785">
			<stop offset="0.418" stop-color="#f89b1c"  />
			<stop offset="0.674" stop-color="#81a334"  />
			<stop offset="0.914" stop-color="#16ab4b"  />
		</radialGradient>
	</defs>
	<style>
		tspan { white-space:pre }
		.shp0 { fill: #ffffff } 
		.shp1 { fill: url(#grd1) } 
		.shp2 { fill: url(#grd2) } 
		.shp3 { fill: url(#grd3) } 
		.shp4 { fill: #f89938 } 
	</style>
	<g id="Layer">
		<g id="Layer">
			<path id="Layer" class="shp0" d="M19.24 38.6C8.6 38.6 0 30.03 0 19.42C0 8.81 8.6 0.23 19.24 0.23C29.87 0.23 38.47 8.81 38.47 19.42C38.47 30.03 29.87 38.6 19.24 38.6Z" />
			<path id="Layer" fill-rule="evenodd" class="shp1" d="M38.47 24.4C36 33.9 26.84 40.08 17.08 38.85C7.33 37.61 0.01 29.34 0 19.53C-0.02 9.72 7.28 1.43 17.03 0.16C26.78 -1.1 35.96 5.06 38.46 14.55L31.81 14.55L31.81 24.4L38.47 24.4ZM19.51 14.55L11.53 14.55L11.53 16.45L16.74 16.45L11.36 22.76L11.36 24.4L19.51 24.4L19.51 22.5L14.13 22.5L19.51 16.19L19.51 14.55ZM29.22 14.55L21.76 14.55L21.76 24.4L29.22 24.4L29.22 22.47L23.9 22.47L23.9 20.4L29.22 20.4L29.22 18.47L23.9 18.47L23.9 16.47L29.22 16.47L29.22 14.55Z" />
			<path id="Layer" class="shp2" d="M34.12 16.52L34.12 18.42L39.04 18.39C39.03 18.24 39.02 18.08 39.01 17.92C38.99 17.76 38.98 17.61 38.96 17.45C38.95 17.3 38.93 17.14 38.91 16.98C38.89 16.83 38.87 16.67 38.84 16.52L34.12 16.52Z" />
			<path id="Layer" class="shp3" d="M34.12 22.43L38.85 22.43C38.87 22.26 38.9 22.1 38.92 21.93C38.94 21.76 38.96 21.6 38.97 21.43C38.99 21.26 39 21.1 39.02 20.93C39.03 20.76 39.04 20.59 39.05 20.43L34.12 20.46L34.12 22.43Z" />
		</g>
		<path id="Layer" fill-rule="evenodd" class="shp4" d="M43.58 15.2L45.38 15.2L45.38 18.45L48.73 18.45L48.73 15.2L50.53 15.2L50.53 23.4L48.72 23.4L48.72 20.11L45.38 20.11L45.38 23.4L43.58 23.4L43.58 15.2ZM52.59 15.2L54.4 15.2L54.4 23.4L52.59 23.4L52.59 15.2ZM56.46 15.2L58.13 15.2L61.98 20.25L61.98 15.2L63.76 15.2L63.76 23.4L62.23 23.4L58.24 18.19L58.24 23.4L56.46 23.4L56.46 15.2ZM65.74 15.2L68.95 15.2C69.51 15.16 70.07 15.24 70.6 15.43C71.12 15.62 71.61 15.91 72.02 16.29C72.43 16.67 72.75 17.14 72.98 17.65C73.2 18.16 73.32 18.72 73.32 19.28L73.32 19.3C73.32 19.86 73.2 20.42 72.98 20.93C72.76 21.45 72.43 21.91 72.02 22.29C71.61 22.68 71.13 22.98 70.6 23.17C70.07 23.36 69.51 23.44 68.95 23.4L65.74 23.4L65.74 15.2ZM68.94 21.78C69.27 21.79 69.6 21.74 69.9 21.63C70.21 21.51 70.49 21.33 70.73 21.1C70.96 20.87 71.14 20.59 71.26 20.29C71.38 19.98 71.43 19.65 71.42 19.33L71.42 19.3C71.43 18.98 71.38 18.65 71.26 18.34C71.14 18.03 70.96 17.75 70.73 17.52C70.49 17.29 70.22 17.11 69.91 16.99C69.6 16.87 69.27 16.82 68.94 16.83L67.54 16.83L67.54 21.77L68.94 21.78ZM78.36 23.53C77.87 23.58 77.38 23.52 76.92 23.35C76.46 23.19 76.04 22.92 75.7 22.57C75.35 22.22 75.1 21.79 74.94 21.33C74.78 20.86 74.74 20.37 74.8 19.89L74.8 15.2L76.61 15.2L76.61 19.84C76.61 21.18 77.28 21.87 78.38 21.87C79.49 21.87 80.16 21.2 80.16 19.9L80.16 15.2L81.97 15.2L81.97 19.83C82.03 20.32 81.98 20.82 81.82 21.29C81.67 21.76 81.4 22.19 81.06 22.55C80.71 22.9 80.29 23.18 79.82 23.35C79.35 23.52 78.86 23.58 78.36 23.53ZM86.74 23.52C86.42 23.52 86.1 23.49 85.79 23.44C85.47 23.38 85.17 23.29 84.87 23.18C84.57 23.07 84.29 22.93 84.01 22.77C83.74 22.6 83.48 22.42 83.25 22.21L84.32 20.93C84.48 21.08 84.66 21.22 84.85 21.34C85.04 21.46 85.24 21.56 85.45 21.65C85.66 21.73 85.88 21.8 86.1 21.84C86.32 21.89 86.54 21.92 86.77 21.92C87.51 21.92 87.96 21.63 87.96 21.15L87.96 21.13C87.96 20.67 87.68 20.44 86.3 20.09C84.64 19.66 83.58 19.21 83.58 17.58L83.58 17.56C83.59 17.2 83.67 16.85 83.83 16.53C83.98 16.21 84.2 15.92 84.47 15.69C84.74 15.46 85.06 15.28 85.4 15.18C85.74 15.07 86.1 15.04 86.46 15.09C86.73 15.08 87 15.1 87.28 15.14C87.55 15.18 87.81 15.25 88.07 15.34C88.33 15.43 88.59 15.54 88.83 15.67C89.07 15.8 89.3 15.95 89.51 16.13L88.57 17.48C88.42 17.37 88.26 17.26 88.09 17.16C87.92 17.07 87.74 16.99 87.56 16.92C87.38 16.85 87.2 16.8 87.01 16.76C86.82 16.71 86.62 16.69 86.43 16.68C85.74 16.68 85.37 16.99 85.37 17.39L85.37 17.41C85.37 17.95 85.73 18.13 87.15 18.49C88.82 18.93 89.76 19.52 89.76 20.95L89.76 20.98C89.76 22.61 88.51 23.52 86.74 23.52ZM93.07 16.86L90.57 16.86L90.57 15.2L97.38 15.2L97.38 16.86L94.88 16.86L94.88 23.4L93.07 23.4L93.07 16.86ZM100.53 15.14L102.2 15.14L105.72 23.4L103.83 23.4L103.08 21.56L99.6 21.56L98.85 23.4L97 23.4L100.53 15.14ZM102.43 19.97L101.34 17.31L100.25 19.97L102.43 19.97ZM106.99 15.2L108.66 15.2L112.51 20.25L112.51 15.2L114.3 15.2L114.3 23.4L112.76 23.4L108.78 18.19L108.78 23.4L106.99 23.4L106.99 15.2Z" />
	</g>
</svg>