<svg xmlns="http://www.w3.org/2000/svg" width="63.81" height="60.029" viewBox="0 0 63.81 60.029"><defs><style>.a{fill:#646464;}.b{fill:#5c546a;}.c{fill:#de8229;}.d{fill:#8a8895;}.e{fill:#ffd100;}.f{fill:#ff9500;}</style></defs><g transform="translate(37.887 35.104)"><path class="a" d="M316.961,307.965c-7.147,0-12.961-4.92-12.961-10.967a1,1,0,0,1,1-1h23.929a1,1,0,0,1,1,1C329.923,303.045,324.108,307.965,316.961,307.965Zm-10.9-9.97c.609,4.481,5.264,7.976,10.9,7.976s10.292-3.5,10.9-7.976Z" transform="translate(-304 -296.001)"/></g><g transform="translate(0 12.172)"><path class="b" d="M1,136.928A1,1,0,0,1,.1,135.5l11.14-22.932a1,1,0,0,1,1.794.871L1.894,136.367A1,1,0,0,1,1,136.928Z" transform="translate(0 -112.003)"/></g><g transform="translate(12.789 12.172)"><path class="b" d="M114.755,136.93a1,1,0,0,1-.9-.561l-11.14-22.932a1,1,0,0,1,1.794-.871l11.14,22.932a1,1,0,0,1-.9,1.433Z" transform="translate(-102.618 -112.004)"/></g><g transform="translate(37.887 12.172)"><path class="b" d="M305,136.928a1,1,0,0,1-.9-1.433l11.14-22.932a1,1,0,0,1,1.794.871l-11.14,22.932A1,1,0,0,1,305,136.928Z" transform="translate(-304 -112.003)"/></g><g transform="translate(50.676 12.172)"><path class="b" d="M418.755,136.93a1,1,0,0,1-.9-.561l-11.14-22.932a1,1,0,0,1,1.794-.871l11.14,22.932a1,1,0,0,1-.9,1.433Z" transform="translate(-406.618 -112.004)"/></g><g transform="translate(5.982 6.19)"><g transform="translate(0 0)"><path class="c" d="M52.985,69.45a.993.993,0,0,1-.457-.111A8.978,8.978,0,0,1,50.3,67.71L48.292,65.7a1,1,0,0,1,1.41-1.41L51.71,66.3a6.963,6.963,0,0,0,1.733,1.267,1,1,0,0,1-.459,1.883Z" transform="translate(-48 -64)"/></g></g><g transform="translate(13.959 4.615)"><path class="c" d="M113,59.27a1,1,0,0,1-.04-1.993,6.926,6.926,0,0,0,2.7-.667l10.874-5.15a1,1,0,0,1,.853,1.8l-10.873,5.15a8.9,8.9,0,0,1-3.471.856Z" transform="translate(-112.002 -51.363)"/></g><g transform="translate(51.846 6.19)"><path class="c" d="M417,69.451a1,1,0,0,1-.458-1.883,6.956,6.956,0,0,0,1.733-1.267l2.008-2.007a1,1,0,0,1,1.41,1.41l-2.008,2.008a8.967,8.967,0,0,1-2.228,1.629A1,1,0,0,1,417,69.451Z" transform="translate(-416.001 -64.001)"/></g><g transform="translate(33.899 4.615)"><path class="c" d="M286.957,59.273h-.042a8.914,8.914,0,0,1-3.472-.856l-10.872-5.15a1,1,0,0,1,.853-1.8l10.873,5.15a6.938,6.938,0,0,0,2.7.667,1,1,0,0,1-.04,1.993Z" transform="translate(-272 -51.367)"/></g><g transform="translate(29.911 6.584)"><path class="b" d="M240,112.636V67.167h3.988v45.469" transform="translate(-240.001 -67.167)"/></g><g transform="translate(23.929 51.056)"><path class="d" d="M199.977,424A7.985,7.985,0,0,0,192,431.977a1,1,0,0,0,1.994,0h11.964a1,1,0,0,0,1.994,0A7.985,7.985,0,0,0,199.977,424Z" transform="translate(-192.001 -424.001)"/></g><g transform="translate(18.944 58.035)"><path class="b" d="M176.927,481.995H153A1,1,0,1,1,153,480h23.929a1,1,0,1,1,0,1.994Z" transform="translate(-152.001 -480.001)"/></g><g transform="translate(0 35.104)"><g transform="translate(0)"><path class="e" d="M24.927,296H1a1,1,0,0,0-1,1c0,6.047,5.815,10.967,12.961,10.967S25.924,303.045,25.924,297A1,1,0,0,0,24.927,296Z" transform="translate(-0.001 -296.001)"/></g><path class="f" d="M1,296a1,1,0,0,0-1,1c0,6.047,5.815,10.967,12.961,10.967V296Z" transform="translate(-0.001 -296.001)"/></g><g transform="translate(37.887 35.104)"><path class="e" d="M328.927,296H305a1,1,0,0,0-1,1c0,6.047,5.815,10.967,12.961,10.967s12.961-4.92,12.961-10.967A1,1,0,0,0,328.927,296Z" transform="translate(-304.001 -296.001)"/><path class="f" d="M305,296a1,1,0,0,0-1,1c0,6.047,5.815,10.967,12.961,10.967V296Z" transform="translate(-304.001 -296.001)"/></g><g transform="translate(8.163 9.993)"><ellipse class="d" cx="4.372" cy="1.874" rx="4.372" ry="1.874" transform="translate(0 0)"/></g><g transform="translate(46.888 9.993)"><ellipse class="d" cx="4.372" cy="1.874" rx="4.372" ry="1.874" transform="translate(0 0)"/></g><g transform="translate(28.15 0)"><ellipse class="d" cx="3.748" cy="4.997" rx="3.748" ry="4.997" transform="translate(0)"/></g><g transform="translate(28.15 3.748)"><ellipse class="b" cx="3.748" cy="1.249" rx="3.748" ry="1.249" transform="translate(0 0)"/></g></svg>