<svg xmlns="http://www.w3.org/2000/svg" xmlns:xlink="http://www.w3.org/1999/xlink" width="110" height="39" viewBox="0 0 110 39">
  <defs>
    <radialGradient id="radial-gradient" cx="0.168" cy="0.018" r="1.135" gradientTransform="translate(-0.008) scale(1.016 1)" gradientUnits="objectBoundingBox">
      <stop offset="0.418" stop-color="#f89b1c"/>
      <stop offset="0.674" stop-color="#81a334"/>
      <stop offset="0.914" stop-color="#16ab4b"/>
    </radialGradient>
    <radialGradient id="radial-gradient-2" cx="-5.319" cy="-7.883" r="22.137" gradientTransform="translate(0.306) scale(0.388 1)" xlink:href="#radial-gradient"/>
    <radialGradient id="radial-gradient-3" cx="-5.31" cy="-9.354" r="21.06" gradientTransform="translate(0.296) scale(0.408 1)" xlink:href="#radial-gradient"/>
    <clipPath id="clip-zee-mallogo">
      <rect width="110" height="39"/>
    </clipPath>
  </defs>
  <g id="zee-mallogo" clip-path="url(#clip-zee-mallogo)">
    <g id="Malayalam" transform="translate(0 0)">
      <g id="Component_40_2" data-name="Component 40 – 2" transform="translate(0 0)">
        <path id="Path_127" data-name="Path 127" d="M.643,1.752V-2.026A3.057,3.057,0,0,1,.9-3.336a2.526,2.526,0,0,1,.725-.924,3.121,3.121,0,0,1,1.1-.547,5.116,5.116,0,0,1,1.395-.18A4.471,4.471,0,0,1,5.451-4.8,2.917,2.917,0,0,1,6.5-4.236a2.551,2.551,0,0,1,.686.94A3.282,3.282,0,0,1,7.428-1.98V1.752ZM4.056-2.724a1.458,1.458,0,0,0-.229-.891.758.758,0,0,0-.64-.3,1.006,1.006,0,0,0-.5.134,1.363,1.363,0,0,0-.418.372,1.967,1.967,0,0,0-.291.57,2.5,2.5,0,0,0-.12.734q0,.1-.007.2t0,.189V.708A11.285,11.285,0,0,0,2.9-.308a6.28,6.28,0,0,0,.681-.9A3.31,3.31,0,0,0,3.947-2,2.607,2.607,0,0,0,4.056-2.724ZM6.222-1.717q0-.092,0-.189t-.007-.2a2.342,2.342,0,0,0-.129-.707,1.8,1.8,0,0,0-.321-.566,1.63,1.63,0,0,0-.492-.393,1.755,1.755,0,0,0-.637-.187,1.4,1.4,0,0,1,.432.543,1.838,1.838,0,0,1,.155.778,2.664,2.664,0,0,1-.12.762,4.091,4.091,0,0,1-.36.829,6.58,6.58,0,0,1-.594.871,8.71,8.71,0,0,1-.815.882H6.222ZM16.6.713V-4.867H17.8V1.752H9.164V-1.925a4.305,4.305,0,0,1,.187-1.335A2.527,2.527,0,0,1,9.9-4.215a2.261,2.261,0,0,1,.88-.577,3.42,3.42,0,0,1,1.2-.194,3.53,3.53,0,0,1,1.238.194,2.094,2.094,0,0,1,.854.577,2.4,2.4,0,0,1,.5.956,5,5,0,0,1,.159,1.335v1.33H10.37V.713ZM10.37-1.634h3.145v-.448q0-.106,0-.2a2.3,2.3,0,0,0-.127-.757,1.374,1.374,0,0,0-.326-.515,1.277,1.277,0,0,0-.494-.3,1.976,1.976,0,0,0-.624-.095,2.031,2.031,0,0,0-.587.083,1.249,1.249,0,0,0-.49.277,1.409,1.409,0,0,0-.344.513,2.252,2.252,0,0,0-.145.79q0,.106,0,.219v.427Zm18.48-3.349a5.336,5.336,0,0,1,.508.785,5.8,5.8,0,0,1,.36.829,5.38,5.38,0,0,1,.215.836A4.774,4.774,0,0,1,30-1.726a3.976,3.976,0,0,1-.27,1.5A3.274,3.274,0,0,1,28.988.909a3.279,3.279,0,0,1-1.12.714,3.824,3.824,0,0,1-1.393.249,4.161,4.161,0,0,1-.45-.025,4.535,4.535,0,0,1-.46-.074q-.226-.048-.436-.115a2.625,2.625,0,0,1-.376-.15,3.19,3.19,0,0,1-.732.266,3.863,3.863,0,0,1-.9.1,4.065,4.065,0,0,1-1.09-.141,3.67,3.67,0,0,1-.933-.4,3.521,3.521,0,0,1-.76-.621,3.727,3.727,0,0,1-.566-.8,4.107,4.107,0,0,1-.353-.951,4.53,4.53,0,0,1-.122-1.06,3.392,3.392,0,0,1,.212-1.247,2.7,2.7,0,0,1,.563-.9,2.346,2.346,0,0,1,.8-.547,2.43,2.43,0,0,1,.931-.185,2.176,2.176,0,0,1,.5.053,1.518,1.518,0,0,1,.4.152,1.416,1.416,0,0,1,.314.24,1.792,1.792,0,0,1,.245.312h.032a1.782,1.782,0,0,1,.7-.559,2.278,2.278,0,0,1,.963-.2,2.192,2.192,0,0,1,.836.164,1.98,1.98,0,0,1,.711.5,2.494,2.494,0,0,1,.5.843,3.476,3.476,0,0,1,.187,1.2,3.543,3.543,0,0,1-.115.887,4.749,4.749,0,0,1-.307.852A4.838,4.838,0,0,1,26.328.2a3.48,3.48,0,0,1-.5.573,2.133,2.133,0,0,0,.335.072,2.734,2.734,0,0,0,.395.03A2.029,2.029,0,0,0,27.4.7a2.056,2.056,0,0,0,.693-.51,2.462,2.462,0,0,0,.471-.8,3.048,3.048,0,0,0,.173-1.058,4.2,4.2,0,0,0-.067-.737,4.417,4.417,0,0,0-.206-.753,4.716,4.716,0,0,0-.356-.748,4.972,4.972,0,0,0-.522-.727ZM23.21.879a1.494,1.494,0,0,0,.279-.028,1.32,1.32,0,0,0,.238-.065A2.7,2.7,0,0,1,23.175.23a3.542,3.542,0,0,1-.409-.709,4.13,4.13,0,0,1-.254-.806,4.18,4.18,0,0,1-.088-.852q0-.134.012-.27t.025-.266q.014-.129.025-.245t.012-.208a1.082,1.082,0,0,0-.044-.309.786.786,0,0,0-.132-.261.636.636,0,0,0-.222-.18.694.694,0,0,0-.314-.067.97.97,0,0,0-.441.111,1.142,1.142,0,0,0-.393.339,1.87,1.87,0,0,0-.282.577,2.805,2.805,0,0,0-.109.829,3.346,3.346,0,0,0,.206,1.194,2.918,2.918,0,0,0,.563.938,2.544,2.544,0,0,0,.841.614A2.476,2.476,0,0,0,23.21.879Zm.466-3.03a3.567,3.567,0,0,0,.261,1.4A2.914,2.914,0,0,0,24.789.357a3.269,3.269,0,0,0,.466-.529A3.665,3.665,0,0,0,25.612-.8a3.521,3.521,0,0,0,.226-.691,3.439,3.439,0,0,0,.079-.734,3.278,3.278,0,0,0-.074-.732,1.776,1.776,0,0,0-.21-.54.991.991,0,0,0-.328-.335.82.82,0,0,0-.432-.115,1.034,1.034,0,0,0-.485.115,1.044,1.044,0,0,0-.379.344,1.79,1.79,0,0,0-.245.563A3.045,3.045,0,0,0,23.676-2.151Zm11.237.55a5.737,5.737,0,0,0-.076-.981,2.437,2.437,0,0,0-.238-.737,1.238,1.238,0,0,0-.409-.462,1.043,1.043,0,0,0-.584-.162,1.074,1.074,0,0,0-.515.122,1.157,1.157,0,0,0-.393.349,1.713,1.713,0,0,0-.254.547,2.893,2.893,0,0,0-.1.714H31.094A3.617,3.617,0,0,1,31.281-3.3a2.68,2.68,0,0,1,.492-.88,2.272,2.272,0,0,1,.778-.589A2.455,2.455,0,0,1,33.6-4.987a2.519,2.519,0,0,1,1.152.247,2.181,2.181,0,0,1,.8.693,3.133,3.133,0,0,1,.471,1.062,5.546,5.546,0,0,1,.155,1.351A6.157,6.157,0,0,1,36.029-.2,3.277,3.277,0,0,1,35.558.9a2.2,2.2,0,0,1-.8.714,2.461,2.461,0,0,1-1.152.254,2.653,2.653,0,0,1-1.051-.2,2.258,2.258,0,0,1-.781-.543,2.371,2.371,0,0,1-.492-.824,3.319,3.319,0,0,1-.185-1.042h1.252a2.53,2.53,0,0,0,.1.651A1.468,1.468,0,0,0,32.7.41a1.1,1.1,0,0,0,.39.309,1.186,1.186,0,0,0,.515.109.992.992,0,0,0,.584-.173A1.306,1.306,0,0,0,34.6.163,2.692,2.692,0,0,0,34.838-.6,5.975,5.975,0,0,0,34.914-1.6ZM42.253.643a4.121,4.121,0,0,0,.7-.051,1.415,1.415,0,0,0,.478-.162A.694.694,0,0,0,43.7.147a.916.916,0,0,0,.088-.418.7.7,0,0,0-.282-.58,1.426,1.426,0,0,0-.878-.219h-.841V-2.086h.647a1.071,1.071,0,0,0,.7-.192.683.683,0,0,0,.226-.552A.738.738,0,0,0,43.2-3.3a1.3,1.3,0,0,0-.45-.346,2.592,2.592,0,0,0-.672-.212,4.516,4.516,0,0,0-.824-.072,4.851,4.851,0,0,0-.963.088,3.321,3.321,0,0,0-.767.247,2.108,2.108,0,0,0-.568.386,1.8,1.8,0,0,0-.367.5h.032a1.26,1.26,0,0,1,.45-.247,1.965,1.965,0,0,1,.6-.085,1.538,1.538,0,0,1,.543.1,1.438,1.438,0,0,1,.476.293,1.476,1.476,0,0,1,.339.476,1.523,1.523,0,0,1,.129.642,1.927,1.927,0,0,1-.152.787,1.687,1.687,0,0,1-.418.582A1.821,1.821,0,0,1,39.969.2,2.321,2.321,0,0,1,39.2.32a1.88,1.88,0,0,1-.811-.169,1.752,1.752,0,0,1-.6-.46,2.049,2.049,0,0,1-.374-.679,2.6,2.6,0,0,1-.129-.827,2.949,2.949,0,0,1,.284-1.3,2.864,2.864,0,0,1,.806-1,3.768,3.768,0,0,1,1.266-.642A5.683,5.683,0,0,1,41.3-4.987a5.881,5.881,0,0,1,1.388.15,3.543,3.543,0,0,1,1.051.423,1.994,1.994,0,0,1,.665.656,1.615,1.615,0,0,1,.231.85,1.348,1.348,0,0,1-.046.349,1.263,1.263,0,0,1-.143.333,1.27,1.27,0,0,1-.249.293,1.383,1.383,0,0,1-.365.226v.028a1.521,1.521,0,0,1,.5.145,1.232,1.232,0,0,1,.39.3,1.382,1.382,0,0,1,.254.448,1.758,1.758,0,0,1,.092.589,1.831,1.831,0,0,1-.176.824,1.548,1.548,0,0,1-.515.589,2.411,2.411,0,0,1-.836.351,5.03,5.03,0,0,1-1.134.115H39.158a.71.71,0,0,0-.462.127.424.424,0,0,0-.152.344A.416.416,0,0,0,38.7,2.5a.729.729,0,0,0,.462.122h5.265V3.66H39.112a3.052,3.052,0,0,1-.776-.09,1.594,1.594,0,0,1-.577-.273,1.189,1.189,0,0,1-.36-.46,1.575,1.575,0,0,1-.125-.651,1.63,1.63,0,0,1,.129-.672,1.287,1.287,0,0,1,.369-.483A1.623,1.623,0,0,1,38.346.74a2.653,2.653,0,0,1,.744-.1ZM39.172-2.109a.746.746,0,0,0-.279.051.67.67,0,0,0-.222.143.663.663,0,0,0-.148.217.688.688,0,0,0-.053.273.8.8,0,0,0,.048.282.679.679,0,0,0,.139.226.638.638,0,0,0,.219.152.72.72,0,0,0,.286.055.676.676,0,0,0,.517-.2.754.754,0,0,0,.185-.538.733.733,0,0,0-.046-.261.592.592,0,0,0-.136-.212.633.633,0,0,0-.219-.141A.79.79,0,0,0,39.172-2.109ZM48.816.828a1.423,1.423,0,0,0,.568-.113A1.327,1.327,0,0,0,49.837.4a1.486,1.486,0,0,0,.3-.485,1.722,1.722,0,0,0,.109-.624,1.74,1.74,0,0,0-.109-.626,1.508,1.508,0,0,0-.3-.49,1.312,1.312,0,0,0-.453-.319,1.423,1.423,0,0,0-.568-.113,1.423,1.423,0,0,0-.568.113,1.313,1.313,0,0,0-.453.319,1.508,1.508,0,0,0-.3.49,1.74,1.74,0,0,0-.109.626,1.722,1.722,0,0,0,.109.624A1.486,1.486,0,0,0,47.8.4a1.327,1.327,0,0,0,.453.316A1.423,1.423,0,0,0,48.816.828Zm0,1.044a3.071,3.071,0,0,1-1.072-.182,2.521,2.521,0,0,1-.854-.517,2.375,2.375,0,0,1-.566-.813A2.681,2.681,0,0,1,46.119-.71a2.681,2.681,0,0,1,.206-1.069A2.424,2.424,0,0,1,46.89-2.6a2.484,2.484,0,0,1,.854-.522A3.071,3.071,0,0,1,48.816-3.3a3.071,3.071,0,0,1,1.072.182,2.484,2.484,0,0,1,.854.522,2.424,2.424,0,0,1,.566.818A2.681,2.681,0,0,1,51.514-.71,2.669,2.669,0,0,1,51.308.355a2.4,2.4,0,0,1-.566.815,2.5,2.5,0,0,1-.854.52A3.071,3.071,0,0,1,48.816,1.872Z" transform="translate(58.196 32.767)" fill="#f89938"/>
        <path id="Path_128" data-name="Path 128" d="M.714,2.12H2.483V-1.107H5.745V2.12H7.514V-5.92H5.745v3.182H2.483V-5.92H.714Zm8.81,0h1.769V-5.92H9.524Zm3.779,0h1.746V-2.991L18.943,2.12h1.5V-5.92H18.7V-.97L14.934-5.92H13.3Zm9.074,0h3.136A4.025,4.025,0,0,0,29.786-1.9v-.023a4.008,4.008,0,0,0-4.273-4H22.377Zm1.769-1.6V-4.324h1.367A2.309,2.309,0,0,1,27.936-1.9v.023a2.291,2.291,0,0,1-2.424,2.4ZM34.713,2.247c2.159,0,3.526-1.195,3.526-3.63V-5.92H36.471v4.606c0,1.275-.655,1.93-1.734,1.93S33-.062,33-1.372V-5.92H31.233v4.594C31.233,1.041,32.554,2.247,34.713,2.247Zm8.19-.011c1.734,0,2.952-.9,2.952-2.493V-.28c0-1.4-.919-1.987-2.55-2.412-1.39-.356-1.734-.528-1.734-1.057v-.023c0-.391.356-.7,1.034-.7a3.773,3.773,0,0,1,2.09.793l.919-1.332a4.654,4.654,0,0,0-2.986-1.022,2.515,2.515,0,0,0-2.814,2.424v.023c0,1.6,1.045,2.045,2.665,2.458,1.344.345,1.62.574,1.62,1.022v.023c0,.471-.436.758-1.16.758a3.688,3.688,0,0,1-2.4-.976L39.491.949A5.116,5.116,0,0,0,42.9,2.235Zm6.191-.115h1.769V-4.289h2.447V-5.92H46.647v1.631h2.447Zm3.848,0h1.8l.735-1.8h3.4l.735,1.8h1.849l-3.446-8.1H56.388Zm3.17-3.365L57.18-3.853l1.068,2.607ZM62.705,2.12h1.746V-2.991L68.345,2.12h1.5V-5.92H68.1V-.97L64.336-5.92H62.705Z" transform="translate(40.396 20.824)" fill="#f89938"/>
        <g id="Group_640" data-name="Group 640" transform="translate(-0.534 0)">
          <circle id="Ellipse_9" data-name="Ellipse 9" cx="18.5" cy="18.5" r="18.5" transform="translate(-0.038 0.259)" fill="#fff"/>
          <path id="Path_14" data-name="Path 14" d="M94.549,81.362V71.7h6.5a19.12,19.12,0,1,0,.014,9.664Zm-12.02-8.049L77.267,79.5h5.262v1.864H74.561V79.747l5.262-6.185h-5.1V71.7h7.8Zm9.486.276H86.822v1.96h5.194v1.891H86.822v2.029h5.194v1.891H84.73V71.7h7.285Z" transform="translate(-63.273 -57.436)" fill="url(#radial-gradient)"/>
          <path id="Path_15" data-name="Path 15" d="M1799.239,902.748v1.868l4.81-.03a18.345,18.345,0,0,0-.192-1.838Z" transform="translate(-1765.706 -886.553)" fill="url(#radial-gradient-2)"/>
          <path id="Path_16" data-name="Path 16" d="M1799.239,1104.647h4.626a18.29,18.29,0,0,0,.192-1.964l-4.818.03Z" transform="translate(-1765.706 -1082.655)" fill="url(#radial-gradient-3)"/>
        </g>
      </g>
    </g>
  </g>
</svg>
