<svg xmlns="http://www.w3.org/2000/svg" xmlns:xlink="http://www.w3.org/1999/xlink" width="111" height="38" viewBox="0 0 111 38">
  <defs>
    <radialGradient id="radial-gradient" cx="0.168" cy="0.018" r="1.135" gradientTransform="translate(-0.008) scale(1.016 1)" gradientUnits="objectBoundingBox">
      <stop offset="0.418" stop-color="#f89b1c"/>
      <stop offset="0.674" stop-color="#81a334"/>
      <stop offset="0.914" stop-color="#16ab4b"/>
    </radialGradient>
    <radialGradient id="radial-gradient-2" cx="-5.319" cy="-7.883" r="22.137" gradientTransform="translate(0.306) scale(0.388 1)" xlink:href="#radial-gradient"/>
    <radialGradient id="radial-gradient-3" cx="-5.31" cy="-9.354" r="21.06" gradientTransform="translate(0.296) scale(0.408 1)" xlink:href="#radial-gradient"/>
    <clipPath id="clip-zee-kannadalogo">
      <rect width="111" height="38"/>
    </clipPath>
  </defs>
  <g id="zee-kannadalogo" clip-path="url(#clip-zee-kannadalogo)">
    <g id="Group_947" data-name="Group 947" transform="translate(-137 -522)">
      <g id="Component_42_1" data-name="Component 42 – 1" transform="translate(137 522)">
        <path id="Path_131" data-name="Path 131" d="M.714,2.155H2.491V-1.086H5.767V2.155H7.543V-5.92H5.767v3.2H2.491v-3.2H.714Zm8.848,0h1.776V-5.92H9.562Zm3.8,0h1.753V-2.978l3.911,5.133h1.511V-5.92H18.779V-.948L15-5.92H13.357Zm9.113,0H25.62a4.043,4.043,0,0,0,4.291-4.038v-.023A4.025,4.025,0,0,0,25.62-5.92H22.47Zm1.777-1.6V-4.316H25.62a2.319,2.319,0,0,1,2.434,2.434v.023A2.3,2.3,0,0,1,25.62.552ZM34.86,2.282c2.169,0,3.541-1.2,3.541-3.645V-5.92H36.625v4.626c0,1.28-.658,1.938-1.742,1.938s-1.742-.681-1.742-2V-5.92H31.364v4.614C31.364,1.071,32.691,2.282,34.86,2.282Zm8.225-.012c1.742,0,2.965-.9,2.965-2.5V-.256c0-1.407-.923-2-2.561-2.423-1.4-.358-1.742-.531-1.742-1.061v-.023c0-.392.358-.7,1.038-.7a3.789,3.789,0,0,1,2.1.8l.923-1.338a4.674,4.674,0,0,0-3-1.027c-1.65,0-2.826.969-2.826,2.434v.023c0,1.6,1.05,2.053,2.676,2.469,1.35.346,1.627.577,1.627,1.027v.023c0,.473-.438.761-1.165.761a3.7,3.7,0,0,1-2.411-.981L39.659.979A5.138,5.138,0,0,0,43.085,2.271ZM49.3,2.155h1.777V-4.282h2.457V-5.92H46.845v1.638H49.3Zm3.864,0h1.811L55.716.344h3.415l.738,1.811h1.857L58.266-5.977H56.628Zm3.184-3.38,1.073-2.619L58.5-1.225Zm6.621,3.38h1.753V-2.978l3.911,5.133h1.511V-5.92H68.394V-.948L64.61-5.92H62.972Z" transform="translate(40.573 20.688)" fill="#f89938"/>
        <path id="Path_132" data-name="Path 132" d="M3.342-1.885H6.774a.822.822,0,0,0,.169-.227A.635.635,0,0,0,7.006-2.4a.674.674,0,0,0-.16-.452,1.072,1.072,0,0,0-.424-.295v-.07H7.766a1.488,1.488,0,0,1,.3.376A1.018,1.018,0,0,1,8.17-2.4a.862.862,0,0,1-.035.276,1.015,1.015,0,0,1-.1.239h2.412V-.818H9.13a2.192,2.192,0,0,1,.216.5,1.951,1.951,0,0,1,.077.55,1.981,1.981,0,0,1-.167.809A2.045,2.045,0,0,1,8.8,1.7a2.239,2.239,0,0,1-2.366.441A2.2,2.2,0,0,1,5.749,1.7a2.028,2.028,0,0,1-.459-.656A1.981,1.981,0,0,1,5.122.23,1.951,1.951,0,0,1,5.2-.32a2.192,2.192,0,0,1,.216-.5H4.1ZM7.275-.767a1.077,1.077,0,0,0-.4.074.941.941,0,0,0-.32.209,1.007,1.007,0,0,0-.213.318.992.992,0,0,0-.079.4.976.976,0,0,0,.079.394.987.987,0,0,0,.213.313.959.959,0,0,0,.32.206,1.077,1.077,0,0,0,.4.074,1.064,1.064,0,0,0,.4-.074.959.959,0,0,0,.32-.206A.987.987,0,0,0,8.207.624.976.976,0,0,0,8.286.23a.993.993,0,0,0-.079-.4,1.007,1.007,0,0,0-.213-.318.941.941,0,0,0-.32-.209A1.064,1.064,0,0,0,7.275-.767Zm2.25-5.1a2.224,2.224,0,0,1,.482.38,1.944,1.944,0,0,1,.3.415,1.615,1.615,0,0,1,.155.42,1.912,1.912,0,0,1,.044.394,1.818,1.818,0,0,1-.093.554,1.546,1.546,0,0,1-.3.531,1.591,1.591,0,0,1-.529.4,1.781,1.781,0,0,1-.784.158H6.43V-3.676H8.6a.807.807,0,0,0,.327-.06.67.67,0,0,0,.225-.155.615.615,0,0,0,.13-.211A.668.668,0,0,0,9.32-4.33a.661.661,0,0,0-.037-.227.754.754,0,0,0-.1-.188A.989.989,0,0,0,9.04-4.9q-.081-.072-.169-.137ZM6.9-2.614H4.1V-3.676H6.9ZM16.867,2.3a2.307,2.307,0,0,1-.784-.121A2.078,2.078,0,0,1,15.5,1.86a2.229,2.229,0,0,1-.431-.448A5.056,5.056,0,0,1,14.741.9q-.146-.264-.274-.515A3.642,3.642,0,0,0,14.2-.065a1.338,1.338,0,0,0-.306-.318A.655.655,0,0,0,13.5-.5a.7.7,0,0,0-.362.086.746.746,0,0,0-.232.211.824.824,0,0,0-.125.267,1.023,1.023,0,0,0-.037.257,1.464,1.464,0,0,0,.037.332,1.162,1.162,0,0,0,.13.32,1.845,1.845,0,0,0,.248.327,3.15,3.15,0,0,0,.392.348l-.714.914a3.221,3.221,0,0,1-.642-.538,2.741,2.741,0,0,1-.4-.573A2.237,2.237,0,0,1,11.586.87a2.793,2.793,0,0,1-.058-.552A2.228,2.228,0,0,1,11.649-.4a1.886,1.886,0,0,1,.364-.635,1.8,1.8,0,0,1,.615-.452,2.072,2.072,0,0,1,.877-.172,1.942,1.942,0,0,1,.714.121,1.862,1.862,0,0,1,.536.318,2.366,2.366,0,0,1,.4.448,5.935,5.935,0,0,1,.32.515q.146.264.281.515A2.945,2.945,0,0,0,16.051.7a1.371,1.371,0,0,0,.355.318.867.867,0,0,0,.462.121.871.871,0,0,0,.457-.118,1.067,1.067,0,0,0,.332-.313,1.435,1.435,0,0,0,.2-.441,1.89,1.89,0,0,0,.067-.5,2.2,2.2,0,0,0-.176-.891,2.5,2.5,0,0,0-.462-.71,2.6,2.6,0,0,0-.645-.506,2.771,2.771,0,0,0-.721-.283l.172-1.053a4.968,4.968,0,0,1,.7.209,4.244,4.244,0,0,1,.7.339,3.947,3.947,0,0,1,.64.482A3.026,3.026,0,0,1,18.656-2a3.278,3.278,0,0,1,.355.823,3.7,3.7,0,0,1,.13,1.014A3.116,3.116,0,0,1,18.966.93a2.1,2.1,0,0,1-.48.768,1.936,1.936,0,0,1-.721.452A2.647,2.647,0,0,1,16.867,2.3Zm-.492-4.912H11.528V-3.676h4.847Zm1.781-3.252a2.224,2.224,0,0,1,.482.38,1.944,1.944,0,0,1,.3.415,1.615,1.615,0,0,1,.155.42,1.912,1.912,0,0,1,.044.394,1.818,1.818,0,0,1-.093.554,1.546,1.546,0,0,1-.3.531,1.591,1.591,0,0,1-.529.4,1.781,1.781,0,0,1-.784.158H15.063V-3.676h2.166a.807.807,0,0,0,.327-.06.67.67,0,0,0,.225-.155.615.615,0,0,0,.13-.211.668.668,0,0,0,.042-.227.661.661,0,0,0-.037-.227.754.754,0,0,0-.1-.188.99.99,0,0,0-.144-.158q-.081-.072-.169-.137Zm4.115,7.6a2.368,2.368,0,0,1-.03.371,2.807,2.807,0,0,1-.218.724,1.947,1.947,0,0,1-.174.306l.088.121a1.18,1.18,0,0,0,.327.334.669.669,0,0,0,.355.1.654.654,0,0,0,.3-.074,2.428,2.428,0,0,0,.308-.19l.343.58q-.1.079-.211.155a1.722,1.722,0,0,1-.239.135,1.527,1.527,0,0,1-.26.093,1.071,1.071,0,0,1-.269.035,2.176,2.176,0,0,1-.376-.03,1.3,1.3,0,0,1-.322-.1,1.207,1.207,0,0,1-.281-.181,1.738,1.738,0,0,1-.255-.278l-.083-.111a1.62,1.62,0,0,1-.605.308,2.666,2.666,0,0,1-.68.086,2.314,2.314,0,0,1-.5-.056,1.536,1.536,0,0,1-.459-.179,1.025,1.025,0,0,1-.336-.32.862.862,0,0,1-.13-.485.851.851,0,0,1,.123-.464,1.029,1.029,0,0,1,.318-.32,1.408,1.408,0,0,1,.436-.183,2.058,2.058,0,0,1,.482-.058q.158,0,.315.012a1.629,1.629,0,0,1,.322.058,1.793,1.793,0,0,1,.346.141,2.335,2.335,0,0,1,.385.262,1.064,1.064,0,0,0,.132-.313,1.687,1.687,0,0,0,.058-.457,1.73,1.73,0,0,0-.072-.506,1.833,1.833,0,0,0-.2-.441,2.279,2.279,0,0,0-.3-.383,4.021,4.021,0,0,0-.378-.341l.431-.557a3.074,3.074,0,0,1,.617.524,2.942,2.942,0,0,1,.4.573,2.425,2.425,0,0,1,.22.575A2.34,2.34,0,0,1,22.272,1.738Zm-2.315,1a1.494,1.494,0,0,0-.22.016.686.686,0,0,0-.193.056.389.389,0,0,0-.137.1.24.24,0,0,0-.053.158.243.243,0,0,0,.053.155.418.418,0,0,0,.139.111.773.773,0,0,0,.2.067,1.227,1.227,0,0,0,.241.023A1.211,1.211,0,0,0,20.2,3.41a1.5,1.5,0,0,0,.234-.063,1.6,1.6,0,0,0,.23-.1,1.186,1.186,0,0,0,.2-.139,1.111,1.111,0,0,0-.206-.162,1.307,1.307,0,0,0-.234-.114,1.541,1.541,0,0,0-.244-.067A1.243,1.243,0,0,0,19.958,2.74Zm8.249-3.4a.459.459,0,0,0,.114.308.4.4,0,0,0,.322.132A.436.436,0,0,0,28.8-.248a.476.476,0,0,0,.153-.1.531.531,0,0,0,.116-.162.535.535,0,0,0,.046-.232.715.715,0,0,0-.1-.348.729.729,0,0,0-.255-.046.6.6,0,0,0-.244.046.57.57,0,0,0-.174.116.473.473,0,0,0-.1.153A.421.421,0,0,0,28.206-.656ZM26.671,1.051q-.093.172-.225.387a1.9,1.9,0,0,1-.343.408,1.806,1.806,0,0,1-.517.322,1.912,1.912,0,0,1-.747.13,2.146,2.146,0,0,1-.93-.193,1.975,1.975,0,0,1-.682-.524,2.321,2.321,0,0,1-.42-.77,2.98,2.98,0,0,1-.144-.935A3.571,3.571,0,0,1,22.8-1.145a3.3,3.3,0,0,1,.4-.87,3.3,3.3,0,0,1,.617-.7,3.788,3.788,0,0,1,.791-.522,4.131,4.131,0,0,1,.923-.325,4.586,4.586,0,0,1,1.016-.111,3.849,3.849,0,0,1,.823.1,3.459,3.459,0,0,1,.877.327,3.788,3.788,0,0,1,.83.605,3.505,3.505,0,0,1,.689.937,2.709,2.709,0,0,1,.357.359,2.578,2.578,0,0,1,.3.455,2.612,2.612,0,0,1,.206.531,2.264,2.264,0,0,1,.077.594,2.169,2.169,0,0,1-.144.786,1.976,1.976,0,0,1-.415.659,2,2,0,0,1-.661.455,2.191,2.191,0,0,1-.881.169,1.875,1.875,0,0,1-.719-.13,2.145,2.145,0,0,1-.55-.322,2.253,2.253,0,0,1-.392-.408,3.458,3.458,0,0,1-.25-.387Zm.3-1.341a2.191,2.191,0,0,0,.193.531A1.853,1.853,0,0,0,27.492.7a1.551,1.551,0,0,0,.464.322,1.392,1.392,0,0,0,.584.121,1.745,1.745,0,0,0,.517-.077A1.221,1.221,0,0,0,29.5.828,1.191,1.191,0,0,0,29.8.416a1.427,1.427,0,0,0,.116-.6L29.881-.2a1.442,1.442,0,0,1-.526.7A1.33,1.33,0,0,1,28.6.726a1.448,1.448,0,0,1-.538-.1,1.254,1.254,0,0,1-.424-.274,1.24,1.24,0,0,1-.278-.422,1.431,1.431,0,0,1-.1-.543,1.271,1.271,0,0,1,.093-.489,1.291,1.291,0,0,1,.257-.4,1.439,1.439,0,0,1,.39-.29,1.609,1.609,0,0,1,.494-.158v-.032a1.862,1.862,0,0,0-.22-.19,1.853,1.853,0,0,0-.371-.211,3.051,3.051,0,0,0-.526-.172,2.994,2.994,0,0,0-.691-.072,3.285,3.285,0,0,0-1.041.167,2.87,2.87,0,0,0-.9.482,2.376,2.376,0,0,0-.631.772A2.232,2.232,0,0,0,23.878-.16a1.377,1.377,0,0,0,.07.424,1.213,1.213,0,0,0,.206.387A1.082,1.082,0,0,0,24.5.933a1,1,0,0,0,.478.109A.937.937,0,0,0,25.4.935,1.586,1.586,0,0,0,25.8.647a2.237,2.237,0,0,0,.332-.422,2.719,2.719,0,0,0,.246-.515Zm2.319-5.576a2.224,2.224,0,0,1,.482.38,1.944,1.944,0,0,1,.3.415,1.615,1.615,0,0,1,.155.42,1.912,1.912,0,0,1,.044.394,1.818,1.818,0,0,1-.093.554,1.545,1.545,0,0,1-.3.531,1.591,1.591,0,0,1-.529.4,1.781,1.781,0,0,1-.784.158H26.193V-3.676h2.166a.807.807,0,0,0,.327-.06.67.67,0,0,0,.225-.155.615.615,0,0,0,.13-.211.668.668,0,0,0,.042-.227.661.661,0,0,0-.037-.227.754.754,0,0,0-.1-.188A.989.989,0,0,0,28.8-4.9q-.081-.072-.169-.137ZM27.51-2.614H22.663V-3.676H27.51Z" transform="translate(79.553 33.526)" fill="#f89938"/>
        <g id="Group_642" data-name="Group 642">
          <circle id="Ellipse_9" data-name="Ellipse 9" cx="19" cy="19" r="19" fill="#fff"/>
          <path id="Path_14" data-name="Path 14" d="M94.682,81.213v-9.6h6.527a19,19,0,1,0,.014,9.6Zm-12.072-8-5.285,6.146H82.61v1.852h-8V79.607l5.285-6.146h-5.12V71.609H82.61Zm9.527.274H86.921v1.948h5.216v1.88H86.921v2.017h5.216v1.88H84.82v-9.6h7.317Z" transform="translate(-63.807 -57.436)" fill="url(#radial-gradient)"/>
          <path id="Path_15" data-name="Path 15" d="M1799.239,902.748v1.876l4.831-.03a18.433,18.433,0,0,0-.193-1.846Z" transform="translate(-1766.098 -886.663)" fill="url(#radial-gradient-2)"/>
          <path id="Path_16" data-name="Path 16" d="M1799.239,1104.655h4.646a18.385,18.385,0,0,0,.192-1.972l-4.839.03Z" transform="translate(-1766.098 -1082.792)" fill="url(#radial-gradient-3)"/>
        </g>
      </g>
    </g>
  </g>
</svg>
